<svg width="730" height="182" viewBox="0 0 730 182" fill="none" xmlns="http://www.w3.org/2000/svg">
<path d="M142.017 17.48V24.14H153.681V28.82H142.017V38H136.185V12.8H155.229V17.48H142.017ZM177.801 18.632V38H172.473V35.696C171.729 36.536 170.841 37.184 169.809 37.64C168.777 38.072 167.661 38.288 166.461 38.288C163.917 38.288 161.901 37.556 160.413 36.092C158.925 34.628 158.181 32.456 158.181 29.576V18.632H163.797V28.748C163.797 31.868 165.105 33.428 167.721 33.428C169.065 33.428 170.145 32.996 170.961 32.132C171.777 31.244 172.185 29.936 172.185 28.208V18.632H177.801ZM188.368 21.188C189.04 20.252 189.94 19.544 191.068 19.064C192.22 18.584 193.54 18.344 195.028 18.344V23.528C194.404 23.48 193.984 23.456 193.768 23.456C192.16 23.456 190.9 23.912 189.988 24.824C189.076 25.712 188.62 27.056 188.62 28.856V38H183.004V18.632H188.368V21.188ZM210.139 18.344C212.539 18.344 214.471 19.064 215.935 20.504C217.423 21.944 218.167 24.08 218.167 26.912V38H212.551V27.776C212.551 26.24 212.215 25.1 211.543 24.356C210.871 23.588 209.899 23.204 208.627 23.204C207.211 23.204 206.083 23.648 205.243 24.536C204.403 25.4 203.983 26.696 203.983 28.424V38H198.367V18.632H203.731V20.9C204.475 20.084 205.399 19.46 206.503 19.028C207.607 18.572 208.819 18.344 210.139 18.344ZM223.258 18.632H228.874V38H223.258V18.632ZM226.066 15.932C225.034 15.932 224.194 15.632 223.546 15.032C222.898 14.432 222.574 13.688 222.574 12.8C222.574 11.912 222.898 11.168 223.546 10.568C224.194 9.968 225.034 9.668 226.066 9.668C227.098 9.668 227.938 9.956 228.586 10.532C229.234 11.108 229.558 11.828 229.558 12.692C229.558 13.628 229.234 14.408 228.586 15.032C227.938 15.632 227.098 15.932 226.066 15.932ZM246.578 37.064C246.026 37.472 245.342 37.784 244.526 38C243.734 38.192 242.894 38.288 242.006 38.288C239.702 38.288 237.914 37.7 236.642 36.524C235.394 35.348 234.77 33.62 234.77 31.34V23.384H231.782V19.064H234.77V14.348H240.386V19.064H245.21V23.384H240.386V31.268C240.386 32.084 240.59 32.72 240.998 33.176C241.43 33.608 242.03 33.824 242.798 33.824C243.686 33.824 244.442 33.584 245.066 33.104L246.578 37.064ZM269.243 18.632V38H263.915V35.696C263.171 36.536 262.283 37.184 261.251 37.64C260.219 38.072 259.103 38.288 257.903 38.288C255.359 38.288 253.343 37.556 251.855 36.092C250.367 34.628 249.623 32.456 249.623 29.576V18.632H255.239V28.748C255.239 31.868 256.547 33.428 259.163 33.428C260.507 33.428 261.587 32.996 262.403 32.132C263.219 31.244 263.627 29.936 263.627 28.208V18.632H269.243ZM279.81 21.188C280.482 20.252 281.382 19.544 282.51 19.064C283.662 18.584 284.982 18.344 286.47 18.344V23.528C285.846 23.48 285.426 23.456 285.21 23.456C283.602 23.456 282.342 23.912 281.43 24.824C280.518 25.712 280.062 27.056 280.062 28.856V38H274.446V18.632H279.81V21.188ZM308.605 28.388C308.605 28.46 308.569 28.964 308.497 29.9H293.845C294.109 31.1 294.733 32.048 295.717 32.744C296.701 33.44 297.925 33.788 299.389 33.788C300.397 33.788 301.285 33.644 302.053 33.356C302.845 33.044 303.577 32.564 304.249 31.916L307.237 35.156C305.413 37.244 302.749 38.288 299.245 38.288C297.061 38.288 295.129 37.868 293.449 37.028C291.769 36.164 290.473 34.976 289.561 33.464C288.649 31.952 288.193 30.236 288.193 28.316C288.193 26.42 288.637 24.716 289.525 23.204C290.437 21.668 291.673 20.48 293.233 19.64C294.817 18.776 296.581 18.344 298.525 18.344C300.421 18.344 302.137 18.752 303.673 19.568C305.209 20.384 306.409 21.56 307.273 23.096C308.161 24.608 308.605 26.372 308.605 28.388ZM298.561 22.592C297.289 22.592 296.221 22.952 295.357 23.672C294.493 24.392 293.965 25.376 293.773 26.624H303.313C303.121 25.4 302.593 24.428 301.729 23.708C300.865 22.964 299.809 22.592 298.561 22.592ZM334.311 18.344C336.711 18.344 338.643 19.064 340.107 20.504C341.595 21.944 342.339 24.08 342.339 26.912V38H336.723V27.776C336.723 26.24 336.387 25.1 335.715 24.356C335.043 23.588 334.071 23.204 332.799 23.204C331.383 23.204 330.255 23.648 329.415 24.536C328.575 25.4 328.155 26.696 328.155 28.424V38H322.539V18.632H327.903V20.9C328.647 20.084 329.571 19.46 330.675 19.028C331.779 18.572 332.991 18.344 334.311 18.344ZM366.613 28.388C366.613 28.46 366.577 28.964 366.505 29.9H351.853C352.117 31.1 352.741 32.048 353.725 32.744C354.709 33.44 355.933 33.788 357.397 33.788C358.405 33.788 359.293 33.644 360.061 33.356C360.853 33.044 361.585 32.564 362.257 31.916L365.245 35.156C363.421 37.244 360.757 38.288 357.253 38.288C355.069 38.288 353.137 37.868 351.457 37.028C349.777 36.164 348.481 34.976 347.569 33.464C346.657 31.952 346.201 30.236 346.201 28.316C346.201 26.42 346.645 24.716 347.533 23.204C348.445 21.668 349.681 20.48 351.241 19.64C352.825 18.776 354.589 18.344 356.533 18.344C358.429 18.344 360.145 18.752 361.681 19.568C363.217 20.384 364.417 21.56 365.281 23.096C366.169 24.608 366.613 26.372 366.613 28.388ZM356.569 22.592C355.297 22.592 354.229 22.952 353.365 23.672C352.501 24.392 351.973 25.376 351.781 26.624H361.321C361.129 25.4 360.601 24.428 359.737 23.708C358.873 22.964 357.817 22.592 356.569 22.592ZM401.104 18.632L394.084 38H388.684L384.328 25.976L379.828 38H374.428L367.444 18.632H372.736L377.308 31.736L382.06 18.632H386.812L391.42 31.736L396.136 18.632H401.104ZM423.27 38.288C421.206 38.288 419.346 37.868 417.69 37.028C416.058 36.164 414.774 34.976 413.838 33.464C412.926 31.952 412.47 30.236 412.47 28.316C412.47 26.396 412.926 24.68 413.838 23.168C414.774 21.656 416.058 20.48 417.69 19.64C419.346 18.776 421.206 18.344 423.27 18.344C425.31 18.344 427.086 18.776 428.598 19.64C430.134 20.48 431.25 21.692 431.946 23.276L427.59 25.616C426.582 23.84 425.13 22.952 423.234 22.952C421.77 22.952 420.558 23.432 419.598 24.392C418.638 25.352 418.158 26.66 418.158 28.316C418.158 29.972 418.638 31.28 419.598 32.24C420.558 33.2 421.77 33.68 423.234 33.68C425.154 33.68 426.606 32.792 427.59 31.016L431.946 33.392C431.25 34.928 430.134 36.128 428.598 36.992C427.086 37.856 425.31 38.288 423.27 38.288ZM444.15 38.288C442.11 38.288 440.274 37.868 438.642 37.028C437.034 36.164 435.774 34.976 434.862 33.464C433.95 31.952 433.494 30.236 433.494 28.316C433.494 26.396 433.95 24.68 434.862 23.168C435.774 21.656 437.034 20.48 438.642 19.64C440.274 18.776 442.11 18.344 444.15 18.344C446.19 18.344 448.014 18.776 449.622 19.64C451.23 20.48 452.49 21.656 453.402 23.168C454.314 24.68 454.77 26.396 454.77 28.316C454.77 30.236 454.314 31.952 453.402 33.464C452.49 34.976 451.23 36.164 449.622 37.028C448.014 37.868 446.19 38.288 444.15 38.288ZM444.15 33.68C445.59 33.68 446.766 33.2 447.678 32.24C448.614 31.256 449.082 29.948 449.082 28.316C449.082 26.684 448.614 25.388 447.678 24.428C446.766 23.444 445.59 22.952 444.15 22.952C442.71 22.952 441.522 23.444 440.586 24.428C439.65 25.388 439.182 26.684 439.182 28.316C439.182 29.948 439.65 31.256 440.586 32.24C441.522 33.2 442.71 33.68 444.15 33.68ZM458.524 11.288H464.14V38H458.524V11.288ZM469.352 11.288H474.968V38H469.352V11.288ZM499.152 28.388C499.152 28.46 499.116 28.964 499.044 29.9H484.392C484.656 31.1 485.28 32.048 486.264 32.744C487.248 33.44 488.472 33.788 489.936 33.788C490.944 33.788 491.832 33.644 492.6 33.356C493.392 33.044 494.124 32.564 494.796 31.916L497.784 35.156C495.96 37.244 493.296 38.288 489.792 38.288C487.608 38.288 485.676 37.868 483.996 37.028C482.316 36.164 481.02 34.976 480.108 33.464C479.196 31.952 478.74 30.236 478.74 28.316C478.74 26.42 479.184 24.716 480.072 23.204C480.984 21.668 482.22 20.48 483.78 19.64C485.364 18.776 487.128 18.344 489.072 18.344C490.968 18.344 492.684 18.752 494.22 19.568C495.756 20.384 496.956 21.56 497.82 23.096C498.708 24.608 499.152 26.372 499.152 28.388ZM489.108 22.592C487.836 22.592 486.768 22.952 485.904 23.672C485.04 24.392 484.512 25.376 484.32 26.624H493.86C493.668 25.4 493.14 24.428 492.276 23.708C491.412 22.964 490.356 22.592 489.108 22.592ZM512.251 38.288C510.187 38.288 508.327 37.868 506.671 37.028C505.039 36.164 503.755 34.976 502.819 33.464C501.907 31.952 501.451 30.236 501.451 28.316C501.451 26.396 501.907 24.68 502.819 23.168C503.755 21.656 505.039 20.48 506.671 19.64C508.327 18.776 510.187 18.344 512.251 18.344C514.291 18.344 516.067 18.776 517.579 19.64C519.115 20.48 520.231 21.692 520.927 23.276L516.571 25.616C515.563 23.84 514.111 22.952 512.215 22.952C510.751 22.952 509.539 23.432 508.579 24.392C507.619 25.352 507.139 26.66 507.139 28.316C507.139 29.972 507.619 31.28 508.579 32.24C509.539 33.2 510.751 33.68 512.215 33.68C514.135 33.68 515.587 32.792 516.571 31.016L520.927 33.392C520.231 34.928 519.115 36.128 517.579 36.992C516.067 37.856 514.291 38.288 512.251 38.288ZM536.934 37.064C536.382 37.472 535.698 37.784 534.882 38C534.09 38.192 533.25 38.288 532.362 38.288C530.058 38.288 528.27 37.7 526.998 36.524C525.75 35.348 525.126 33.62 525.126 31.34V23.384H522.138V19.064H525.126V14.348H530.742V19.064H535.566V23.384H530.742V31.268C530.742 32.084 530.946 32.72 531.354 33.176C531.786 33.608 532.386 33.824 533.154 33.824C534.042 33.824 534.798 33.584 535.422 33.104L536.934 37.064ZM540.086 18.632H545.702V38H540.086V18.632ZM542.894 15.932C541.862 15.932 541.022 15.632 540.374 15.032C539.726 14.432 539.402 13.688 539.402 12.8C539.402 11.912 539.726 11.168 540.374 10.568C541.022 9.968 541.862 9.668 542.894 9.668C543.926 9.668 544.766 9.956 545.414 10.532C546.062 11.108 546.386 11.828 546.386 12.692C546.386 13.628 546.062 14.408 545.414 15.032C544.766 15.632 543.926 15.932 542.894 15.932ZM560.13 38.288C558.09 38.288 556.254 37.868 554.622 37.028C553.014 36.164 551.754 34.976 550.842 33.464C549.93 31.952 549.474 30.236 549.474 28.316C549.474 26.396 549.93 24.68 550.842 23.168C551.754 21.656 553.014 20.48 554.622 19.64C556.254 18.776 558.09 18.344 560.13 18.344C562.17 18.344 563.994 18.776 565.602 19.64C567.21 20.48 568.47 21.656 569.382 23.168C570.294 24.68 570.75 26.396 570.75 28.316C570.75 30.236 570.294 31.952 569.382 33.464C568.47 34.976 567.21 36.164 565.602 37.028C563.994 37.868 562.17 38.288 560.13 38.288ZM560.13 33.68C561.57 33.68 562.746 33.2 563.658 32.24C564.594 31.256 565.062 29.948 565.062 28.316C565.062 26.684 564.594 25.388 563.658 24.428C562.746 23.444 561.57 22.952 560.13 22.952C558.69 22.952 557.502 23.444 556.566 24.428C555.63 25.388 555.162 26.684 555.162 28.316C555.162 29.948 555.63 31.256 556.566 32.24C557.502 33.2 558.69 33.68 560.13 33.68ZM586.276 18.344C588.676 18.344 590.608 19.064 592.072 20.504C593.56 21.944 594.304 24.08 594.304 26.912V38H588.688V27.776C588.688 26.24 588.352 25.1 587.68 24.356C587.008 23.588 586.036 23.204 584.764 23.204C583.348 23.204 582.22 23.648 581.38 24.536C580.54 25.4 580.12 26.696 580.12 28.424V38H574.504V18.632H579.868V20.9C580.612 20.084 581.536 19.46 582.64 19.028C583.744 18.572 584.956 18.344 586.276 18.344Z" fill="#363838"/>
<rect x="239.25" y="76.25" width="251.5" height="0.5" fill="#6D7278" stroke="#979797" stroke-width="0.5"/>
<path d="M15.5625 115.18C15.5625 117.065 15.0495 118.508 14.0234 119.508C13.0026 120.503 11.5312 121 9.60938 121H6.44531V109.578H9.94531C11.7214 109.578 13.1016 110.07 14.0859 111.055C15.0703 112.039 15.5625 113.414 15.5625 115.18ZM14.1562 115.227C14.1562 113.737 13.7812 112.615 13.0312 111.859C12.2865 111.104 11.1771 110.727 9.70312 110.727H7.77344V119.852H9.39062C10.974 119.852 12.1641 119.464 12.9609 118.688C13.7578 117.906 14.1562 116.753 14.1562 115.227ZM21.5391 121.156C20.2734 121.156 19.2734 120.771 18.5391 120C17.8099 119.229 17.4453 118.159 17.4453 116.789C17.4453 115.409 17.7839 114.312 18.4609 113.5C19.1432 112.688 20.0573 112.281 21.2031 112.281C22.276 112.281 23.125 112.635 23.75 113.344C24.375 114.047 24.6875 114.977 24.6875 116.133V116.953H18.7891C18.8151 117.958 19.0677 118.721 19.5469 119.242C20.0312 119.763 20.7109 120.023 21.5859 120.023C22.5078 120.023 23.4193 119.831 24.3203 119.445V120.602C23.862 120.799 23.4271 120.94 23.0156 121.023C22.6094 121.112 22.1172 121.156 21.5391 121.156ZM21.1875 113.367C20.5 113.367 19.9505 113.591 19.5391 114.039C19.1328 114.487 18.8932 115.107 18.8203 115.898H23.2969C23.2969 115.081 23.1146 114.456 22.75 114.023C22.3854 113.586 21.8646 113.367 21.1875 113.367ZM30.5234 121.156C29.2578 121.156 28.2578 120.771 27.5234 120C26.7943 119.229 26.4297 118.159 26.4297 116.789C26.4297 115.409 26.7682 114.312 27.4453 113.5C28.1276 112.688 29.0417 112.281 30.1875 112.281C31.2604 112.281 32.1094 112.635 32.7344 113.344C33.3594 114.047 33.6719 114.977 33.6719 116.133V116.953H27.7734C27.7995 117.958 28.0521 118.721 28.5312 119.242C29.0156 119.763 29.6953 120.023 30.5703 120.023C31.4922 120.023 32.4036 119.831 33.3047 119.445V120.602C32.8464 120.799 32.4115 120.94 32 121.023C31.5938 121.112 31.1016 121.156 30.5234 121.156ZM30.1719 113.367C29.4844 113.367 28.9349 113.591 28.5234 114.039C28.1172 114.487 27.8776 115.107 27.8047 115.898H32.2812C32.2812 115.081 32.099 114.456 31.7344 114.023C31.3698 113.586 30.849 113.367 30.1719 113.367ZM39.875 121.156C39.3177 121.156 38.8073 121.055 38.3438 120.852C37.8854 120.643 37.5 120.326 37.1875 119.898H37.0938C37.1562 120.398 37.1875 120.872 37.1875 121.32V124.844H35.8906V112.438H36.9453L37.125 113.609H37.1875C37.5208 113.141 37.9089 112.802 38.3516 112.594C38.7943 112.385 39.3021 112.281 39.875 112.281C41.0104 112.281 41.8854 112.669 42.5 113.445C43.1198 114.221 43.4297 115.31 43.4297 116.711C43.4297 118.117 43.1146 119.211 42.4844 119.992C41.8594 120.768 40.9896 121.156 39.875 121.156ZM39.6875 113.383C38.8125 113.383 38.1797 113.625 37.7891 114.109C37.3984 114.594 37.1979 115.365 37.1875 116.422V116.711C37.1875 117.914 37.388 118.776 37.7891 119.297C38.1901 119.812 38.8333 120.07 39.7188 120.07C40.4583 120.07 41.0365 119.771 41.4531 119.172C41.875 118.573 42.0859 117.747 42.0859 116.695C42.0859 115.628 41.875 114.81 41.4531 114.242C41.0365 113.669 40.4479 113.383 39.6875 113.383ZM51.7344 121L48.4844 112.438H49.875L51.7188 117.516C52.1354 118.703 52.3802 119.474 52.4531 119.828H52.5156C52.5729 119.552 52.7526 118.982 53.0547 118.117C53.362 117.247 54.0469 115.354 55.1094 112.438H56.5L53.25 121H51.7344ZM60.6719 112.438H62.0625L63.9375 117.32C64.349 118.435 64.6042 119.24 64.7031 119.734H64.7656C64.8333 119.469 64.974 119.016 65.1875 118.375C65.4062 117.729 66.1146 115.75 67.3125 112.438H68.7031L65.0234 122.188C64.6589 123.151 64.2318 123.833 63.7422 124.234C63.2578 124.641 62.6615 124.844 61.9531 124.844C61.5573 124.844 61.1667 124.799 60.7812 124.711V123.672C61.0677 123.734 61.388 123.766 61.7422 123.766C62.6328 123.766 63.2682 123.266 63.6484 122.266L64.125 121.047L60.6719 112.438ZM77.4844 116.711C77.4844 118.107 77.1328 119.198 76.4297 119.984C75.7266 120.766 74.7552 121.156 73.5156 121.156C72.75 121.156 72.0703 120.977 71.4766 120.617C70.8828 120.258 70.4245 119.742 70.1016 119.07C69.7786 118.398 69.6172 117.612 69.6172 116.711C69.6172 115.315 69.9661 114.229 70.6641 113.453C71.362 112.672 72.3307 112.281 73.5703 112.281C74.7682 112.281 75.7188 112.68 76.4219 113.477C77.1302 114.273 77.4844 115.352 77.4844 116.711ZM70.9609 116.711C70.9609 117.805 71.1797 118.638 71.6172 119.211C72.0547 119.784 72.6979 120.07 73.5469 120.07C74.3958 120.07 75.0391 119.786 75.4766 119.219C75.9193 118.646 76.1406 117.81 76.1406 116.711C76.1406 115.622 75.9193 114.797 75.4766 114.234C75.0391 113.667 74.3906 113.383 73.5312 113.383C72.6823 113.383 72.0417 113.661 71.6094 114.219C71.1771 114.776 70.9609 115.607 70.9609 116.711ZM80.9844 112.438V117.992C80.9844 118.69 81.1432 119.211 81.4609 119.555C81.7786 119.898 82.276 120.07 82.9531 120.07C83.849 120.07 84.5026 119.826 84.9141 119.336C85.3307 118.846 85.5391 118.047 85.5391 116.938V112.438H86.8359V121H85.7656L85.5781 119.852H85.5078C85.2422 120.273 84.8724 120.596 84.3984 120.82C83.9297 121.044 83.3932 121.156 82.7891 121.156C81.7474 121.156 80.9661 120.909 80.4453 120.414C79.9297 119.919 79.6719 119.128 79.6719 118.039V112.438H80.9844ZM97.7344 121.156C97.1771 121.156 96.6667 121.055 96.2031 120.852C95.7448 120.643 95.3594 120.326 95.0469 119.898H94.9531C95.0156 120.398 95.0469 120.872 95.0469 121.32V124.844H93.75V112.438H94.8047L94.9844 113.609H95.0469C95.3802 113.141 95.7682 112.802 96.2109 112.594C96.6536 112.385 97.1615 112.281 97.7344 112.281C98.8698 112.281 99.7448 112.669 100.359 113.445C100.979 114.221 101.289 115.31 101.289 116.711C101.289 118.117 100.974 119.211 100.344 119.992C99.7188 120.768 98.849 121.156 97.7344 121.156ZM97.5469 113.383C96.6719 113.383 96.0391 113.625 95.6484 114.109C95.2578 114.594 95.0573 115.365 95.0469 116.422V116.711C95.0469 117.914 95.2474 118.776 95.6484 119.297C96.0495 119.812 96.6927 120.07 97.5781 120.07C98.3177 120.07 98.8958 119.771 99.3125 119.172C99.7344 118.573 99.9453 117.747 99.9453 116.695C99.9453 115.628 99.7344 114.81 99.3125 114.242C98.8958 113.669 98.3073 113.383 97.5469 113.383ZM107.469 112.281C107.849 112.281 108.19 112.312 108.492 112.375L108.312 113.578C107.958 113.5 107.646 113.461 107.375 113.461C106.682 113.461 106.089 113.742 105.594 114.305C105.104 114.867 104.859 115.568 104.859 116.406V121H103.562V112.438H104.633L104.781 114.023H104.844C105.161 113.466 105.544 113.036 105.992 112.734C106.44 112.432 106.932 112.281 107.469 112.281ZM117.484 116.711C117.484 118.107 117.133 119.198 116.43 119.984C115.727 120.766 114.755 121.156 113.516 121.156C112.75 121.156 112.07 120.977 111.477 120.617C110.883 120.258 110.424 119.742 110.102 119.07C109.779 118.398 109.617 117.612 109.617 116.711C109.617 115.315 109.966 114.229 110.664 113.453C111.362 112.672 112.331 112.281 113.57 112.281C114.768 112.281 115.719 112.68 116.422 113.477C117.13 114.273 117.484 115.352 117.484 116.711ZM110.961 116.711C110.961 117.805 111.18 118.638 111.617 119.211C112.055 119.784 112.698 120.07 113.547 120.07C114.396 120.07 115.039 119.786 115.477 119.219C115.919 118.646 116.141 117.81 116.141 116.711C116.141 115.622 115.919 114.797 115.477 114.234C115.039 113.667 114.391 113.383 113.531 113.383C112.682 113.383 112.042 113.661 111.609 114.219C111.177 114.776 110.961 115.607 110.961 116.711ZM123.75 112.297C124.875 112.297 125.747 112.682 126.367 113.453C126.992 114.219 127.305 115.305 127.305 116.711C127.305 118.117 126.99 119.211 126.359 119.992C125.734 120.768 124.865 121.156 123.75 121.156C123.193 121.156 122.682 121.055 122.219 120.852C121.76 120.643 121.375 120.326 121.062 119.898H120.969L120.695 121H119.766V108.844H121.062V111.797C121.062 112.458 121.042 113.052 121 113.578H121.062C121.667 112.724 122.562 112.297 123.75 112.297ZM123.562 113.383C122.677 113.383 122.039 113.638 121.648 114.148C121.258 114.654 121.062 115.508 121.062 116.711C121.062 117.914 121.263 118.776 121.664 119.297C122.065 119.812 122.708 120.07 123.594 120.07C124.391 120.07 124.984 119.781 125.375 119.203C125.766 118.62 125.961 117.784 125.961 116.695C125.961 115.581 125.766 114.75 125.375 114.203C124.984 113.656 124.38 113.383 123.562 113.383ZM134.844 121L134.586 119.781H134.523C134.096 120.318 133.669 120.682 133.242 120.875C132.82 121.062 132.292 121.156 131.656 121.156C130.807 121.156 130.141 120.938 129.656 120.5C129.177 120.062 128.938 119.44 128.938 118.633C128.938 116.904 130.32 115.997 133.086 115.914L134.539 115.867V115.336C134.539 114.664 134.393 114.169 134.102 113.852C133.815 113.529 133.354 113.367 132.719 113.367C132.005 113.367 131.198 113.586 130.297 114.023L129.898 113.031C130.32 112.802 130.781 112.622 131.281 112.492C131.786 112.362 132.292 112.297 132.797 112.297C133.818 112.297 134.573 112.523 135.062 112.977C135.557 113.43 135.805 114.156 135.805 115.156V121H134.844ZM131.914 120.086C132.721 120.086 133.354 119.865 133.812 119.422C134.276 118.979 134.508 118.359 134.508 117.562V116.789L133.211 116.844C132.18 116.88 131.435 117.042 130.977 117.328C130.523 117.609 130.297 118.049 130.297 118.648C130.297 119.117 130.438 119.474 130.719 119.719C131.005 119.964 131.404 120.086 131.914 120.086ZM142.469 112.297C143.594 112.297 144.466 112.682 145.086 113.453C145.711 114.219 146.023 115.305 146.023 116.711C146.023 118.117 145.708 119.211 145.078 119.992C144.453 120.768 143.583 121.156 142.469 121.156C141.911 121.156 141.401 121.055 140.938 120.852C140.479 120.643 140.094 120.326 139.781 119.898H139.688L139.414 121H138.484V108.844H139.781V111.797C139.781 112.458 139.76 113.052 139.719 113.578H139.781C140.385 112.724 141.281 112.297 142.469 112.297ZM142.281 113.383C141.396 113.383 140.758 113.638 140.367 114.148C139.977 114.654 139.781 115.508 139.781 116.711C139.781 117.914 139.982 118.776 140.383 119.297C140.784 119.812 141.427 120.07 142.312 120.07C143.109 120.07 143.703 119.781 144.094 119.203C144.484 118.62 144.68 117.784 144.68 116.695C144.68 115.581 144.484 114.75 144.094 114.203C143.703 113.656 143.099 113.383 142.281 113.383ZM149.594 121H148.297V108.844H149.594V121ZM150.984 112.438H152.375L154.25 117.32C154.661 118.435 154.917 119.24 155.016 119.734H155.078C155.146 119.469 155.286 119.016 155.5 118.375C155.719 117.729 156.427 115.75 157.625 112.438H159.016L155.336 122.188C154.971 123.151 154.544 123.833 154.055 124.234C153.57 124.641 152.974 124.844 152.266 124.844C151.87 124.844 151.479 124.799 151.094 124.711V123.672C151.38 123.734 151.701 123.766 152.055 123.766C152.945 123.766 153.581 123.266 153.961 122.266L154.438 121.047L150.984 112.438ZM170.422 121V115.461C170.422 114.763 170.263 114.242 169.945 113.898C169.628 113.555 169.13 113.383 168.453 113.383C167.552 113.383 166.893 113.628 166.477 114.117C166.065 114.607 165.859 115.409 165.859 116.523V121H164.562V108.844H165.859V112.523C165.859 112.966 165.839 113.333 165.797 113.625H165.875C166.13 113.214 166.492 112.891 166.961 112.656C167.435 112.417 167.974 112.297 168.578 112.297C169.625 112.297 170.409 112.547 170.93 113.047C171.456 113.542 171.719 114.331 171.719 115.414V121H170.422ZM179.656 121L179.398 119.781H179.336C178.909 120.318 178.482 120.682 178.055 120.875C177.633 121.062 177.104 121.156 176.469 121.156C175.62 121.156 174.953 120.938 174.469 120.5C173.99 120.062 173.75 119.44 173.75 118.633C173.75 116.904 175.133 115.997 177.898 115.914L179.352 115.867V115.336C179.352 114.664 179.206 114.169 178.914 113.852C178.628 113.529 178.167 113.367 177.531 113.367C176.818 113.367 176.01 113.586 175.109 114.023L174.711 113.031C175.133 112.802 175.594 112.622 176.094 112.492C176.599 112.362 177.104 112.297 177.609 112.297C178.63 112.297 179.385 112.523 179.875 112.977C180.37 113.43 180.617 114.156 180.617 115.156V121H179.656ZM176.727 120.086C177.534 120.086 178.167 119.865 178.625 119.422C179.089 118.979 179.32 118.359 179.32 117.562V116.789L178.023 116.844C176.992 116.88 176.247 117.042 175.789 117.328C175.336 117.609 175.109 118.049 175.109 118.648C175.109 119.117 175.25 119.474 175.531 119.719C175.818 119.964 176.216 120.086 176.727 120.086ZM185.172 121L181.922 112.438H183.312L185.156 117.516C185.573 118.703 185.818 119.474 185.891 119.828H185.953C186.01 119.552 186.19 118.982 186.492 118.117C186.799 117.247 187.484 115.354 188.547 112.438H189.938L186.688 121H185.172ZM194.93 121.156C193.664 121.156 192.664 120.771 191.93 120C191.201 119.229 190.836 118.159 190.836 116.789C190.836 115.409 191.174 114.312 191.852 113.5C192.534 112.688 193.448 112.281 194.594 112.281C195.667 112.281 196.516 112.635 197.141 113.344C197.766 114.047 198.078 114.977 198.078 116.133V116.953H192.18C192.206 117.958 192.458 118.721 192.938 119.242C193.422 119.763 194.102 120.023 194.977 120.023C195.898 120.023 196.81 119.831 197.711 119.445V120.602C197.253 120.799 196.818 120.94 196.406 121.023C196 121.112 195.508 121.156 194.93 121.156ZM194.578 113.367C193.891 113.367 193.341 113.591 192.93 114.039C192.523 114.487 192.284 115.107 192.211 115.898H196.688C196.688 115.081 196.505 114.456 196.141 114.023C195.776 113.586 195.255 113.367 194.578 113.367ZM206.156 121V115.461C206.156 114.763 205.997 114.242 205.68 113.898C205.362 113.555 204.865 113.383 204.188 113.383C203.292 113.383 202.635 113.625 202.219 114.109C201.802 114.594 201.594 115.393 201.594 116.508V121H200.297V112.438H201.352L201.562 113.609H201.625C201.891 113.188 202.263 112.862 202.742 112.633C203.221 112.398 203.755 112.281 204.344 112.281C205.375 112.281 206.151 112.531 206.672 113.031C207.193 113.526 207.453 114.32 207.453 115.414V121H206.156ZM211.242 109.578L210.93 113.703H210.109L209.789 109.578H211.242ZM216.438 120.086C216.667 120.086 216.888 120.07 217.102 120.039C217.315 120.003 217.484 119.966 217.609 119.93V120.922C217.469 120.99 217.26 121.044 216.984 121.086C216.714 121.133 216.469 121.156 216.25 121.156C214.594 121.156 213.766 120.284 213.766 118.539V113.445H212.539V112.82L213.766 112.281L214.312 110.453H215.062V112.438H217.547V113.445H215.062V118.484C215.062 119 215.185 119.396 215.43 119.672C215.674 119.948 216.01 120.086 216.438 120.086ZM229.344 121V115.461C229.344 114.763 229.185 114.242 228.867 113.898C228.549 113.555 228.052 113.383 227.375 113.383C226.474 113.383 225.815 113.628 225.398 114.117C224.987 114.607 224.781 115.409 224.781 116.523V121H223.484V108.844H224.781V112.523C224.781 112.966 224.76 113.333 224.719 113.625H224.797C225.052 113.214 225.414 112.891 225.883 112.656C226.357 112.417 226.896 112.297 227.5 112.297C228.547 112.297 229.331 112.547 229.852 113.047C230.378 113.542 230.641 114.331 230.641 115.414V121H229.344ZM236.93 121.156C235.664 121.156 234.664 120.771 233.93 120C233.201 119.229 232.836 118.159 232.836 116.789C232.836 115.409 233.174 114.312 233.852 113.5C234.534 112.688 235.448 112.281 236.594 112.281C237.667 112.281 238.516 112.635 239.141 113.344C239.766 114.047 240.078 114.977 240.078 116.133V116.953H234.18C234.206 117.958 234.458 118.721 234.938 119.242C235.422 119.763 236.102 120.023 236.977 120.023C237.898 120.023 238.81 119.831 239.711 119.445V120.602C239.253 120.799 238.818 120.94 238.406 121.023C238 121.112 237.508 121.156 236.93 121.156ZM236.578 113.367C235.891 113.367 235.341 113.591 234.93 114.039C234.523 114.487 234.284 115.107 234.211 115.898H238.688C238.688 115.081 238.505 114.456 238.141 114.023C237.776 113.586 237.255 113.367 236.578 113.367ZM247.562 121L247.305 119.781H247.242C246.815 120.318 246.388 120.682 245.961 120.875C245.539 121.062 245.01 121.156 244.375 121.156C243.526 121.156 242.859 120.938 242.375 120.5C241.896 120.062 241.656 119.44 241.656 118.633C241.656 116.904 243.039 115.997 245.805 115.914L247.258 115.867V115.336C247.258 114.664 247.112 114.169 246.82 113.852C246.534 113.529 246.073 113.367 245.438 113.367C244.724 113.367 243.917 113.586 243.016 114.023L242.617 113.031C243.039 112.802 243.5 112.622 244 112.492C244.505 112.362 245.01 112.297 245.516 112.297C246.536 112.297 247.292 112.523 247.781 112.977C248.276 113.43 248.523 114.156 248.523 115.156V121H247.562ZM244.633 120.086C245.44 120.086 246.073 119.865 246.531 119.422C246.995 118.979 247.227 118.359 247.227 117.562V116.789L245.93 116.844C244.898 116.88 244.154 117.042 243.695 117.328C243.242 117.609 243.016 118.049 243.016 118.648C243.016 119.117 243.156 119.474 243.438 119.719C243.724 119.964 244.122 120.086 244.633 120.086ZM255.109 112.281C255.49 112.281 255.831 112.312 256.133 112.375L255.953 113.578C255.599 113.5 255.286 113.461 255.016 113.461C254.323 113.461 253.729 113.742 253.234 114.305C252.745 114.867 252.5 115.568 252.5 116.406V121H251.203V112.438H252.273L252.422 114.023H252.484C252.802 113.466 253.185 113.036 253.633 112.734C254.081 112.432 254.573 112.281 255.109 112.281ZM263.562 119.852H263.492C262.893 120.721 261.997 121.156 260.805 121.156C259.685 121.156 258.812 120.773 258.188 120.008C257.568 119.242 257.258 118.154 257.258 116.742C257.258 115.331 257.57 114.234 258.195 113.453C258.82 112.672 259.69 112.281 260.805 112.281C261.966 112.281 262.857 112.703 263.477 113.547H263.578L263.523 112.93L263.492 112.328V108.844H264.789V121H263.734L263.562 119.852ZM260.969 120.07C261.854 120.07 262.495 119.831 262.891 119.352C263.292 118.867 263.492 118.089 263.492 117.016V116.742C263.492 115.529 263.289 114.664 262.883 114.148C262.482 113.628 261.839 113.367 260.953 113.367C260.193 113.367 259.609 113.664 259.203 114.258C258.802 114.846 258.602 115.68 258.602 116.758C258.602 117.852 258.802 118.677 259.203 119.234C259.604 119.792 260.193 120.07 260.969 120.07ZM279.094 116.711C279.094 118.107 278.742 119.198 278.039 119.984C277.336 120.766 276.365 121.156 275.125 121.156C274.359 121.156 273.68 120.977 273.086 120.617C272.492 120.258 272.034 119.742 271.711 119.07C271.388 118.398 271.227 117.612 271.227 116.711C271.227 115.315 271.576 114.229 272.273 113.453C272.971 112.672 273.94 112.281 275.18 112.281C276.378 112.281 277.328 112.68 278.031 113.477C278.74 114.273 279.094 115.352 279.094 116.711ZM272.57 116.711C272.57 117.805 272.789 118.638 273.227 119.211C273.664 119.784 274.307 120.07 275.156 120.07C276.005 120.07 276.648 119.786 277.086 119.219C277.529 118.646 277.75 117.81 277.75 116.711C277.75 115.622 277.529 114.797 277.086 114.234C276.648 113.667 276 113.383 275.141 113.383C274.292 113.383 273.651 113.661 273.219 114.219C272.786 114.776 272.57 115.607 272.57 116.711ZM285.234 113.445H283.055V121H281.758V113.445H280.227V112.859L281.758 112.391V111.914C281.758 109.81 282.677 108.758 284.516 108.758C284.969 108.758 285.5 108.849 286.109 109.031L285.773 110.07C285.273 109.909 284.846 109.828 284.492 109.828C284.003 109.828 283.641 109.992 283.406 110.32C283.172 110.643 283.055 111.164 283.055 111.883V112.438H285.234V113.445ZM293.719 120.086C293.948 120.086 294.169 120.07 294.383 120.039C294.596 120.003 294.766 119.966 294.891 119.93V120.922C294.75 120.99 294.542 121.044 294.266 121.086C293.995 121.133 293.75 121.156 293.531 121.156C291.875 121.156 291.047 120.284 291.047 118.539V113.445H289.82V112.82L291.047 112.281L291.594 110.453H292.344V112.438H294.828V113.445H292.344V118.484C292.344 119 292.466 119.396 292.711 119.672C292.956 119.948 293.292 120.086 293.719 120.086ZM302.469 121V115.461C302.469 114.763 302.31 114.242 301.992 113.898C301.674 113.555 301.177 113.383 300.5 113.383C299.599 113.383 298.94 113.628 298.523 114.117C298.112 114.607 297.906 115.409 297.906 116.523V121H296.609V108.844H297.906V112.523C297.906 112.966 297.885 113.333 297.844 113.625H297.922C298.177 113.214 298.539 112.891 299.008 112.656C299.482 112.417 300.021 112.297 300.625 112.297C301.672 112.297 302.456 112.547 302.977 113.047C303.503 113.542 303.766 114.331 303.766 115.414V121H302.469ZM310.055 121.156C308.789 121.156 307.789 120.771 307.055 120C306.326 119.229 305.961 118.159 305.961 116.789C305.961 115.409 306.299 114.312 306.977 113.5C307.659 112.688 308.573 112.281 309.719 112.281C310.792 112.281 311.641 112.635 312.266 113.344C312.891 114.047 313.203 114.977 313.203 116.133V116.953H307.305C307.331 117.958 307.583 118.721 308.062 119.242C308.547 119.763 309.227 120.023 310.102 120.023C311.023 120.023 311.935 119.831 312.836 119.445V120.602C312.378 120.799 311.943 120.94 311.531 121.023C311.125 121.112 310.633 121.156 310.055 121.156ZM309.703 113.367C309.016 113.367 308.466 113.591 308.055 114.039C307.648 114.487 307.409 115.107 307.336 115.898H311.812C311.812 115.081 311.63 114.456 311.266 114.023C310.901 113.586 310.38 113.367 309.703 113.367ZM326.336 121V115.43C326.336 114.747 326.19 114.237 325.898 113.898C325.607 113.555 325.154 113.383 324.539 113.383C323.732 113.383 323.135 113.615 322.75 114.078C322.365 114.542 322.172 115.255 322.172 116.219V121H320.875V115.43C320.875 114.747 320.729 114.237 320.438 113.898C320.146 113.555 319.69 113.383 319.07 113.383C318.258 113.383 317.661 113.628 317.281 114.117C316.906 114.602 316.719 115.398 316.719 116.508V121H315.422V112.438H316.477L316.688 113.609H316.75C316.995 113.193 317.339 112.867 317.781 112.633C318.229 112.398 318.729 112.281 319.281 112.281C320.62 112.281 321.495 112.766 321.906 113.734H321.969C322.224 113.286 322.594 112.932 323.078 112.672C323.562 112.411 324.115 112.281 324.734 112.281C325.703 112.281 326.427 112.531 326.906 113.031C327.391 113.526 327.633 114.32 327.633 115.414V121H326.336ZM338.453 112.297C339.578 112.297 340.451 112.682 341.07 113.453C341.695 114.219 342.008 115.305 342.008 116.711C342.008 118.117 341.693 119.211 341.062 119.992C340.438 120.768 339.568 121.156 338.453 121.156C337.896 121.156 337.385 121.055 336.922 120.852C336.464 120.643 336.078 120.326 335.766 119.898H335.672L335.398 121H334.469V108.844H335.766V111.797C335.766 112.458 335.745 113.052 335.703 113.578H335.766C336.37 112.724 337.266 112.297 338.453 112.297ZM338.266 113.383C337.38 113.383 336.742 113.638 336.352 114.148C335.961 114.654 335.766 115.508 335.766 116.711C335.766 117.914 335.966 118.776 336.367 119.297C336.768 119.812 337.411 120.07 338.297 120.07C339.094 120.07 339.688 119.781 340.078 119.203C340.469 118.62 340.664 117.784 340.664 116.695C340.664 115.581 340.469 114.75 340.078 114.203C339.688 113.656 339.083 113.383 338.266 113.383ZM349.547 121L349.289 119.781H349.227C348.799 120.318 348.372 120.682 347.945 120.875C347.523 121.062 346.995 121.156 346.359 121.156C345.51 121.156 344.844 120.938 344.359 120.5C343.88 120.062 343.641 119.44 343.641 118.633C343.641 116.904 345.023 115.997 347.789 115.914L349.242 115.867V115.336C349.242 114.664 349.096 114.169 348.805 113.852C348.518 113.529 348.057 113.367 347.422 113.367C346.708 113.367 345.901 113.586 345 114.023L344.602 113.031C345.023 112.802 345.484 112.622 345.984 112.492C346.49 112.362 346.995 112.297 347.5 112.297C348.521 112.297 349.276 112.523 349.766 112.977C350.26 113.43 350.508 114.156 350.508 115.156V121H349.547ZM346.617 120.086C347.424 120.086 348.057 119.865 348.516 119.422C348.979 118.979 349.211 118.359 349.211 117.562V116.789L347.914 116.844C346.883 116.88 346.138 117.042 345.68 117.328C345.227 117.609 345 118.049 345 118.648C345 119.117 345.141 119.474 345.422 119.719C345.708 119.964 346.107 120.086 346.617 120.086ZM359.047 121V115.461C359.047 114.763 358.888 114.242 358.57 113.898C358.253 113.555 357.755 113.383 357.078 113.383C356.182 113.383 355.526 113.625 355.109 114.109C354.693 114.594 354.484 115.393 354.484 116.508V121H353.188V112.438H354.242L354.453 113.609H354.516C354.781 113.188 355.154 112.862 355.633 112.633C356.112 112.398 356.646 112.281 357.234 112.281C358.266 112.281 359.042 112.531 359.562 113.031C360.083 113.526 360.344 114.32 360.344 115.414V121H359.047ZM368.875 121V115.461C368.875 114.763 368.716 114.242 368.398 113.898C368.081 113.555 367.583 113.383 366.906 113.383C366.005 113.383 365.346 113.628 364.93 114.117C364.518 114.607 364.312 115.409 364.312 116.523V121H363.016V108.844H364.312V112.523C364.312 112.966 364.292 113.333 364.25 113.625H364.328C364.583 113.214 364.945 112.891 365.414 112.656C365.888 112.417 366.427 112.297 367.031 112.297C368.078 112.297 368.862 112.547 369.383 113.047C369.909 113.542 370.172 114.331 370.172 115.414V121H368.875ZM387.914 121V115.43C387.914 114.747 387.768 114.237 387.477 113.898C387.185 113.555 386.732 113.383 386.117 113.383C385.31 113.383 384.714 113.615 384.328 114.078C383.943 114.542 383.75 115.255 383.75 116.219V121H382.453V115.43C382.453 114.747 382.307 114.237 382.016 113.898C381.724 113.555 381.268 113.383 380.648 113.383C379.836 113.383 379.24 113.628 378.859 114.117C378.484 114.602 378.297 115.398 378.297 116.508V121H377V112.438H378.055L378.266 113.609H378.328C378.573 113.193 378.917 112.867 379.359 112.633C379.807 112.398 380.307 112.281 380.859 112.281C382.198 112.281 383.073 112.766 383.484 113.734H383.547C383.802 113.286 384.172 112.932 384.656 112.672C385.141 112.411 385.693 112.281 386.312 112.281C387.281 112.281 388.005 112.531 388.484 113.031C388.969 113.526 389.211 114.32 389.211 115.414V121H387.914ZM393.188 121H391.891V112.438H393.188V121ZM391.781 110.117C391.781 109.82 391.854 109.604 392 109.469C392.146 109.328 392.328 109.258 392.547 109.258C392.755 109.258 392.935 109.328 393.086 109.469C393.237 109.609 393.312 109.826 393.312 110.117C393.312 110.409 393.237 110.628 393.086 110.773C392.935 110.914 392.755 110.984 392.547 110.984C392.328 110.984 392.146 110.914 392 110.773C391.854 110.628 391.781 110.409 391.781 110.117ZM405.617 118.664C405.617 119.461 405.32 120.076 404.727 120.508C404.133 120.94 403.299 121.156 402.227 121.156C401.091 121.156 400.206 120.977 399.57 120.617V119.414C399.982 119.622 400.422 119.786 400.891 119.906C401.365 120.026 401.82 120.086 402.258 120.086C402.935 120.086 403.456 119.979 403.82 119.766C404.185 119.547 404.367 119.216 404.367 118.773C404.367 118.44 404.221 118.156 403.93 117.922C403.643 117.682 403.081 117.401 402.242 117.078C401.445 116.781 400.878 116.523 400.539 116.305C400.206 116.081 399.956 115.828 399.789 115.547C399.628 115.266 399.547 114.93 399.547 114.539C399.547 113.841 399.831 113.292 400.398 112.891C400.966 112.484 401.745 112.281 402.734 112.281C403.656 112.281 404.557 112.469 405.438 112.844L404.977 113.898C404.117 113.544 403.339 113.367 402.641 113.367C402.026 113.367 401.562 113.464 401.25 113.656C400.938 113.849 400.781 114.115 400.781 114.453C400.781 114.682 400.839 114.878 400.953 115.039C401.073 115.201 401.263 115.354 401.523 115.5C401.784 115.646 402.284 115.857 403.023 116.133C404.039 116.503 404.724 116.875 405.078 117.25C405.438 117.625 405.617 118.096 405.617 118.664ZM406.375 112.438H407.766L409.641 117.32C410.052 118.435 410.307 119.24 410.406 119.734H410.469C410.536 119.469 410.677 119.016 410.891 118.375C411.109 117.729 411.818 115.75 413.016 112.438H414.406L410.727 122.188C410.362 123.151 409.935 123.833 409.445 124.234C408.961 124.641 408.365 124.844 407.656 124.844C407.26 124.844 406.87 124.799 406.484 124.711V123.672C406.771 123.734 407.091 123.766 407.445 123.766C408.336 123.766 408.971 123.266 409.352 122.266L409.828 121.047L406.375 112.438ZM421.656 121V115.461C421.656 114.763 421.497 114.242 421.18 113.898C420.862 113.555 420.365 113.383 419.688 113.383C418.792 113.383 418.135 113.625 417.719 114.109C417.302 114.594 417.094 115.393 417.094 116.508V121H415.797V112.438H416.852L417.062 113.609H417.125C417.391 113.188 417.763 112.862 418.242 112.633C418.721 112.398 419.255 112.281 419.844 112.281C420.875 112.281 421.651 112.531 422.172 113.031C422.693 113.526 422.953 114.32 422.953 115.414V121H421.656ZM428.391 120.086C428.62 120.086 428.841 120.07 429.055 120.039C429.268 120.003 429.438 119.966 429.562 119.93V120.922C429.422 120.99 429.214 121.044 428.938 121.086C428.667 121.133 428.422 121.156 428.203 121.156C426.547 121.156 425.719 120.284 425.719 118.539V113.445H424.492V112.82L425.719 112.281L426.266 110.453H427.016V112.438H429.5V113.445H427.016V118.484C427.016 119 427.138 119.396 427.383 119.672C427.628 119.948 427.964 120.086 428.391 120.086ZM437.141 121V115.461C437.141 114.763 436.982 114.242 436.664 113.898C436.346 113.555 435.849 113.383 435.172 113.383C434.271 113.383 433.612 113.628 433.195 114.117C432.784 114.607 432.578 115.409 432.578 116.523V121H431.281V108.844H432.578V112.523C432.578 112.966 432.557 113.333 432.516 113.625H432.594C432.849 113.214 433.211 112.891 433.68 112.656C434.154 112.417 434.693 112.297 435.297 112.297C436.344 112.297 437.128 112.547 437.648 113.047C438.174 113.542 438.438 114.331 438.438 115.414V121H437.141ZM450.531 121L450.273 119.781H450.211C449.784 120.318 449.357 120.682 448.93 120.875C448.508 121.062 447.979 121.156 447.344 121.156C446.495 121.156 445.828 120.938 445.344 120.5C444.865 120.062 444.625 119.44 444.625 118.633C444.625 116.904 446.008 115.997 448.773 115.914L450.227 115.867V115.336C450.227 114.664 450.081 114.169 449.789 113.852C449.503 113.529 449.042 113.367 448.406 113.367C447.693 113.367 446.885 113.586 445.984 114.023L445.586 113.031C446.008 112.802 446.469 112.622 446.969 112.492C447.474 112.362 447.979 112.297 448.484 112.297C449.505 112.297 450.26 112.523 450.75 112.977C451.245 113.43 451.492 114.156 451.492 115.156V121H450.531ZM447.602 120.086C448.409 120.086 449.042 119.865 449.5 119.422C449.964 118.979 450.195 118.359 450.195 117.562V116.789L448.898 116.844C447.867 116.88 447.122 117.042 446.664 117.328C446.211 117.609 445.984 118.049 445.984 118.648C445.984 119.117 446.125 119.474 446.406 119.719C446.693 119.964 447.091 120.086 447.602 120.086ZM457.594 121.156C456.354 121.156 455.393 120.776 454.711 120.016C454.034 119.25 453.695 118.169 453.695 116.773C453.695 115.341 454.039 114.234 454.727 113.453C455.419 112.672 456.404 112.281 457.68 112.281C458.091 112.281 458.503 112.326 458.914 112.414C459.326 112.503 459.648 112.607 459.883 112.727L459.484 113.828C459.198 113.714 458.885 113.62 458.547 113.547C458.208 113.469 457.909 113.43 457.648 113.43C455.909 113.43 455.039 114.539 455.039 116.758C455.039 117.81 455.25 118.617 455.672 119.18C456.099 119.742 456.729 120.023 457.562 120.023C458.276 120.023 459.008 119.87 459.758 119.562V120.711C459.185 121.008 458.464 121.156 457.594 121.156ZM464.562 120.086C464.792 120.086 465.013 120.07 465.227 120.039C465.44 120.003 465.609 119.966 465.734 119.93V120.922C465.594 120.99 465.385 121.044 465.109 121.086C464.839 121.133 464.594 121.156 464.375 121.156C462.719 121.156 461.891 120.284 461.891 118.539V113.445H460.664V112.82L461.891 112.281L462.438 110.453H463.188V112.438H465.672V113.445H463.188V118.484C463.188 119 463.31 119.396 463.555 119.672C463.799 119.948 464.135 120.086 464.562 120.086ZM468.672 112.438V117.992C468.672 118.69 468.831 119.211 469.148 119.555C469.466 119.898 469.964 120.07 470.641 120.07C471.536 120.07 472.19 119.826 472.602 119.336C473.018 118.846 473.227 118.047 473.227 116.938V112.438H474.523V121H473.453L473.266 119.852H473.195C472.93 120.273 472.56 120.596 472.086 120.82C471.617 121.044 471.081 121.156 470.477 121.156C469.435 121.156 468.654 120.909 468.133 120.414C467.617 119.919 467.359 119.128 467.359 118.039V112.438H468.672ZM482.547 121L482.289 119.781H482.227C481.799 120.318 481.372 120.682 480.945 120.875C480.523 121.062 479.995 121.156 479.359 121.156C478.51 121.156 477.844 120.938 477.359 120.5C476.88 120.062 476.641 119.44 476.641 118.633C476.641 116.904 478.023 115.997 480.789 115.914L482.242 115.867V115.336C482.242 114.664 482.096 114.169 481.805 113.852C481.518 113.529 481.057 113.367 480.422 113.367C479.708 113.367 478.901 113.586 478 114.023L477.602 113.031C478.023 112.802 478.484 112.622 478.984 112.492C479.49 112.362 479.995 112.297 480.5 112.297C481.521 112.297 482.276 112.523 482.766 112.977C483.26 113.43 483.508 114.156 483.508 115.156V121H482.547ZM479.617 120.086C480.424 120.086 481.057 119.865 481.516 119.422C481.979 118.979 482.211 118.359 482.211 117.562V116.789L480.914 116.844C479.883 116.88 479.138 117.042 478.68 117.328C478.227 117.609 478 118.049 478 118.648C478 119.117 478.141 119.474 478.422 119.719C478.708 119.964 479.107 120.086 479.617 120.086ZM487.484 121H486.188V108.844H487.484V121ZM491.531 121H490.234V108.844H491.531V121ZM492.922 112.438H494.312L496.188 117.32C496.599 118.435 496.854 119.24 496.953 119.734H497.016C497.083 119.469 497.224 119.016 497.438 118.375C497.656 117.729 498.365 115.75 499.562 112.438H500.953L497.273 122.188C496.909 123.151 496.482 123.833 495.992 124.234C495.508 124.641 494.911 124.844 494.203 124.844C493.807 124.844 493.417 124.799 493.031 124.711V123.672C493.318 123.734 493.638 123.766 493.992 123.766C494.883 123.766 495.518 123.266 495.898 122.266L496.375 121.047L492.922 112.438ZM511.766 121L511.508 119.781H511.445C511.018 120.318 510.591 120.682 510.164 120.875C509.742 121.062 509.214 121.156 508.578 121.156C507.729 121.156 507.062 120.938 506.578 120.5C506.099 120.062 505.859 119.44 505.859 118.633C505.859 116.904 507.242 115.997 510.008 115.914L511.461 115.867V115.336C511.461 114.664 511.315 114.169 511.023 113.852C510.737 113.529 510.276 113.367 509.641 113.367C508.927 113.367 508.12 113.586 507.219 114.023L506.82 113.031C507.242 112.802 507.703 112.622 508.203 112.492C508.708 112.362 509.214 112.297 509.719 112.297C510.74 112.297 511.495 112.523 511.984 112.977C512.479 113.43 512.727 114.156 512.727 115.156V121H511.766ZM508.836 120.086C509.643 120.086 510.276 119.865 510.734 119.422C511.198 118.979 511.43 118.359 511.43 117.562V116.789L510.133 116.844C509.102 116.88 508.357 117.042 507.898 117.328C507.445 117.609 507.219 118.049 507.219 118.648C507.219 119.117 507.359 119.474 507.641 119.719C507.927 119.964 508.326 120.086 508.836 120.086ZM524.688 113.445H522.508V121H521.211V113.445H519.68V112.859L521.211 112.391V111.914C521.211 109.81 522.13 108.758 523.969 108.758C524.422 108.758 524.953 108.849 525.562 109.031L525.227 110.07C524.727 109.909 524.299 109.828 523.945 109.828C523.456 109.828 523.094 109.992 522.859 110.32C522.625 110.643 522.508 111.164 522.508 111.883V112.438H524.688V113.445ZM519.266 113.445H517.086V121H515.789V113.445H514.258V112.859L515.789 112.391V111.914C515.789 109.81 516.708 108.758 518.547 108.758C519 108.758 519.531 108.849 520.141 109.031L519.805 110.07C519.305 109.909 518.878 109.828 518.523 109.828C518.034 109.828 517.672 109.992 517.438 110.32C517.203 110.643 517.086 111.164 517.086 111.883V112.438H519.266V113.445ZM533.656 116.711C533.656 118.107 533.305 119.198 532.602 119.984C531.898 120.766 530.927 121.156 529.688 121.156C528.922 121.156 528.242 120.977 527.648 120.617C527.055 120.258 526.596 119.742 526.273 119.07C525.951 118.398 525.789 117.612 525.789 116.711C525.789 115.315 526.138 114.229 526.836 113.453C527.534 112.672 528.503 112.281 529.742 112.281C530.94 112.281 531.891 112.68 532.594 113.477C533.302 114.273 533.656 115.352 533.656 116.711ZM527.133 116.711C527.133 117.805 527.352 118.638 527.789 119.211C528.227 119.784 528.87 120.07 529.719 120.07C530.568 120.07 531.211 119.786 531.648 119.219C532.091 118.646 532.312 117.81 532.312 116.711C532.312 115.622 532.091 114.797 531.648 114.234C531.211 113.667 530.562 113.383 529.703 113.383C528.854 113.383 528.214 113.661 527.781 114.219C527.349 114.776 527.133 115.607 527.133 116.711ZM542.945 112.438V113.258L541.359 113.445C541.505 113.628 541.635 113.867 541.75 114.164C541.865 114.456 541.922 114.786 541.922 115.156C541.922 115.995 541.635 116.664 541.062 117.164C540.49 117.664 539.703 117.914 538.703 117.914C538.448 117.914 538.208 117.893 537.984 117.852C537.432 118.143 537.156 118.51 537.156 118.953C537.156 119.188 537.253 119.362 537.445 119.477C537.638 119.586 537.969 119.641 538.438 119.641H539.953C540.88 119.641 541.591 119.836 542.086 120.227C542.586 120.617 542.836 121.185 542.836 121.93C542.836 122.878 542.456 123.599 541.695 124.094C540.935 124.594 539.826 124.844 538.367 124.844C537.247 124.844 536.383 124.635 535.773 124.219C535.169 123.802 534.867 123.214 534.867 122.453C534.867 121.932 535.034 121.482 535.367 121.102C535.701 120.721 536.169 120.464 536.773 120.328C536.555 120.229 536.37 120.076 536.219 119.867C536.073 119.659 536 119.417 536 119.141C536 118.828 536.083 118.555 536.25 118.32C536.417 118.086 536.68 117.859 537.039 117.641C536.596 117.458 536.234 117.148 535.953 116.711C535.677 116.273 535.539 115.773 535.539 115.211C535.539 114.273 535.82 113.552 536.383 113.047C536.945 112.536 537.742 112.281 538.773 112.281C539.221 112.281 539.625 112.333 539.984 112.438H542.945ZM536.117 122.438C536.117 122.901 536.312 123.253 536.703 123.492C537.094 123.732 537.654 123.852 538.383 123.852C539.471 123.852 540.276 123.688 540.797 123.359C541.323 123.036 541.586 122.596 541.586 122.039C541.586 121.576 541.443 121.253 541.156 121.07C540.87 120.893 540.331 120.805 539.539 120.805H537.984C537.396 120.805 536.938 120.945 536.609 121.227C536.281 121.508 536.117 121.911 536.117 122.438ZM536.82 115.18C536.82 115.779 536.99 116.232 537.328 116.539C537.667 116.846 538.138 117 538.742 117C540.008 117 540.641 116.385 540.641 115.156C540.641 113.87 540 113.227 538.719 113.227C538.109 113.227 537.641 113.391 537.312 113.719C536.984 114.047 536.82 114.534 536.82 115.18ZM549.969 121L549.711 119.781H549.648C549.221 120.318 548.794 120.682 548.367 120.875C547.945 121.062 547.417 121.156 546.781 121.156C545.932 121.156 545.266 120.938 544.781 120.5C544.302 120.062 544.062 119.44 544.062 118.633C544.062 116.904 545.445 115.997 548.211 115.914L549.664 115.867V115.336C549.664 114.664 549.518 114.169 549.227 113.852C548.94 113.529 548.479 113.367 547.844 113.367C547.13 113.367 546.323 113.586 545.422 114.023L545.023 113.031C545.445 112.802 545.906 112.622 546.406 112.492C546.911 112.362 547.417 112.297 547.922 112.297C548.943 112.297 549.698 112.523 550.188 112.977C550.682 113.43 550.93 114.156 550.93 115.156V121H549.969ZM547.039 120.086C547.846 120.086 548.479 119.865 548.938 119.422C549.401 118.979 549.633 118.359 549.633 117.562V116.789L548.336 116.844C547.305 116.88 546.56 117.042 546.102 117.328C545.648 117.609 545.422 118.049 545.422 118.648C545.422 119.117 545.562 119.474 545.844 119.719C546.13 119.964 546.529 120.086 547.039 120.086ZM556.375 120.086C556.604 120.086 556.826 120.07 557.039 120.039C557.253 120.003 557.422 119.966 557.547 119.93V120.922C557.406 120.99 557.198 121.044 556.922 121.086C556.651 121.133 556.406 121.156 556.188 121.156C554.531 121.156 553.703 120.284 553.703 118.539V113.445H552.477V112.82L553.703 112.281L554.25 110.453H555V112.438H557.484V113.445H555V118.484C555 119 555.122 119.396 555.367 119.672C555.612 119.948 555.948 120.086 556.375 120.086ZM566.656 116.711C566.656 118.107 566.305 119.198 565.602 119.984C564.898 120.766 563.927 121.156 562.688 121.156C561.922 121.156 561.242 120.977 560.648 120.617C560.055 120.258 559.596 119.742 559.273 119.07C558.951 118.398 558.789 117.612 558.789 116.711C558.789 115.315 559.138 114.229 559.836 113.453C560.534 112.672 561.503 112.281 562.742 112.281C563.94 112.281 564.891 112.68 565.594 113.477C566.302 114.273 566.656 115.352 566.656 116.711ZM560.133 116.711C560.133 117.805 560.352 118.638 560.789 119.211C561.227 119.784 561.87 120.07 562.719 120.07C563.568 120.07 564.211 119.786 564.648 119.219C565.091 118.646 565.312 117.81 565.312 116.711C565.312 115.622 565.091 114.797 564.648 114.234C564.211 113.667 563.562 113.383 562.703 113.383C561.854 113.383 561.214 113.661 560.781 114.219C560.349 114.776 560.133 115.607 560.133 116.711ZM568.75 120.172C568.75 119.823 568.828 119.56 568.984 119.383C569.146 119.201 569.375 119.109 569.672 119.109C569.974 119.109 570.208 119.201 570.375 119.383C570.547 119.56 570.633 119.823 570.633 120.172C570.633 120.51 570.547 120.771 570.375 120.953C570.203 121.135 569.969 121.227 569.672 121.227C569.406 121.227 569.185 121.146 569.008 120.984C568.836 120.818 568.75 120.547 568.75 120.172ZM584.734 121L583.312 117.367H578.734L577.328 121H575.984L580.5 109.531H581.617L586.109 121H584.734ZM582.898 116.172L581.57 112.633C581.398 112.185 581.221 111.635 581.039 110.984C580.924 111.484 580.76 112.034 580.547 112.633L579.203 116.172H582.898ZM591.102 121.156C589.836 121.156 588.836 120.771 588.102 120C587.372 119.229 587.008 118.159 587.008 116.789C587.008 115.409 587.346 114.312 588.023 113.5C588.706 112.688 589.62 112.281 590.766 112.281C591.839 112.281 592.688 112.635 593.312 113.344C593.938 114.047 594.25 114.977 594.25 116.133V116.953H588.352C588.378 117.958 588.63 118.721 589.109 119.242C589.594 119.763 590.273 120.023 591.148 120.023C592.07 120.023 592.982 119.831 593.883 119.445V120.602C593.424 120.799 592.99 120.94 592.578 121.023C592.172 121.112 591.68 121.156 591.102 121.156ZM590.75 113.367C590.062 113.367 589.513 113.591 589.102 114.039C588.695 114.487 588.456 115.107 588.383 115.898H592.859C592.859 115.081 592.677 114.456 592.312 114.023C591.948 113.586 591.427 113.367 590.75 113.367ZM601.992 118.664C601.992 119.461 601.695 120.076 601.102 120.508C600.508 120.94 599.674 121.156 598.602 121.156C597.466 121.156 596.581 120.977 595.945 120.617V119.414C596.357 119.622 596.797 119.786 597.266 119.906C597.74 120.026 598.195 120.086 598.633 120.086C599.31 120.086 599.831 119.979 600.195 119.766C600.56 119.547 600.742 119.216 600.742 118.773C600.742 118.44 600.596 118.156 600.305 117.922C600.018 117.682 599.456 117.401 598.617 117.078C597.82 116.781 597.253 116.523 596.914 116.305C596.581 116.081 596.331 115.828 596.164 115.547C596.003 115.266 595.922 114.93 595.922 114.539C595.922 113.841 596.206 113.292 596.773 112.891C597.341 112.484 598.12 112.281 599.109 112.281C600.031 112.281 600.932 112.469 601.812 112.844L601.352 113.898C600.492 113.544 599.714 113.367 599.016 113.367C598.401 113.367 597.938 113.464 597.625 113.656C597.312 113.849 597.156 114.115 597.156 114.453C597.156 114.682 597.214 114.878 597.328 115.039C597.448 115.201 597.638 115.354 597.898 115.5C598.159 115.646 598.659 115.857 599.398 116.133C600.414 116.503 601.099 116.875 601.453 117.25C601.812 117.625 601.992 118.096 601.992 118.664ZM606.875 120.086C607.104 120.086 607.326 120.07 607.539 120.039C607.753 120.003 607.922 119.966 608.047 119.93V120.922C607.906 120.99 607.698 121.044 607.422 121.086C607.151 121.133 606.906 121.156 606.688 121.156C605.031 121.156 604.203 120.284 604.203 118.539V113.445H602.977V112.82L604.203 112.281L604.75 110.453H605.5V112.438H607.984V113.445H605.5V118.484C605.5 119 605.622 119.396 605.867 119.672C606.112 119.948 606.448 120.086 606.875 120.086ZM615.625 121V115.461C615.625 114.763 615.466 114.242 615.148 113.898C614.831 113.555 614.333 113.383 613.656 113.383C612.755 113.383 612.096 113.628 611.68 114.117C611.268 114.607 611.062 115.409 611.062 116.523V121H609.766V108.844H611.062V112.523C611.062 112.966 611.042 113.333 611 113.625H611.078C611.333 113.214 611.695 112.891 612.164 112.656C612.638 112.417 613.177 112.297 613.781 112.297C614.828 112.297 615.612 112.547 616.133 113.047C616.659 113.542 616.922 114.331 616.922 115.414V121H615.625ZM623.211 121.156C621.945 121.156 620.945 120.771 620.211 120C619.482 119.229 619.117 118.159 619.117 116.789C619.117 115.409 619.456 114.312 620.133 113.5C620.815 112.688 621.729 112.281 622.875 112.281C623.948 112.281 624.797 112.635 625.422 113.344C626.047 114.047 626.359 114.977 626.359 116.133V116.953H620.461C620.487 117.958 620.74 118.721 621.219 119.242C621.703 119.763 622.383 120.023 623.258 120.023C624.18 120.023 625.091 119.831 625.992 119.445V120.602C625.534 120.799 625.099 120.94 624.688 121.023C624.281 121.112 623.789 121.156 623.211 121.156ZM622.859 113.367C622.172 113.367 621.622 113.591 621.211 114.039C620.805 114.487 620.565 115.107 620.492 115.898H624.969C624.969 115.081 624.786 114.456 624.422 114.023C624.057 113.586 623.536 113.367 622.859 113.367ZM631.344 120.086C631.573 120.086 631.794 120.07 632.008 120.039C632.221 120.003 632.391 119.966 632.516 119.93V120.922C632.375 120.99 632.167 121.044 631.891 121.086C631.62 121.133 631.375 121.156 631.156 121.156C629.5 121.156 628.672 120.284 628.672 118.539V113.445H627.445V112.82L628.672 112.281L629.219 110.453H629.969V112.438H632.453V113.445H629.969V118.484C629.969 119 630.091 119.396 630.336 119.672C630.581 119.948 630.917 120.086 631.344 120.086ZM635.531 121H634.234V112.438H635.531V121ZM634.125 110.117C634.125 109.82 634.198 109.604 634.344 109.469C634.49 109.328 634.672 109.258 634.891 109.258C635.099 109.258 635.279 109.328 635.43 109.469C635.581 109.609 635.656 109.826 635.656 110.117C635.656 110.409 635.581 110.628 635.43 110.773C635.279 110.914 635.099 110.984 634.891 110.984C634.672 110.984 634.49 110.914 634.344 110.773C634.198 110.628 634.125 110.409 634.125 110.117ZM641.703 121.156C640.464 121.156 639.503 120.776 638.82 120.016C638.143 119.25 637.805 118.169 637.805 116.773C637.805 115.341 638.148 114.234 638.836 113.453C639.529 112.672 640.513 112.281 641.789 112.281C642.201 112.281 642.612 112.326 643.023 112.414C643.435 112.503 643.758 112.607 643.992 112.727L643.594 113.828C643.307 113.714 642.995 113.62 642.656 113.547C642.318 113.469 642.018 113.43 641.758 113.43C640.018 113.43 639.148 114.539 639.148 116.758C639.148 117.81 639.359 118.617 639.781 119.18C640.208 119.742 640.839 120.023 641.672 120.023C642.385 120.023 643.117 119.87 643.867 119.562V120.711C643.294 121.008 642.573 121.156 641.703 121.156ZM651.359 121H650.062V108.844H651.359V121ZM652.75 112.438H654.141L656.016 117.32C656.427 118.435 656.682 119.24 656.781 119.734H656.844C656.911 119.469 657.052 119.016 657.266 118.375C657.484 117.729 658.193 115.75 659.391 112.438H660.781L657.102 122.188C656.737 123.151 656.31 123.833 655.82 124.234C655.336 124.641 654.74 124.844 654.031 124.844C653.635 124.844 653.245 124.799 652.859 124.711V123.672C653.146 123.734 653.466 123.766 653.82 123.766C654.711 123.766 655.346 123.266 655.727 122.266L656.203 121.047L652.75 112.438ZM666.031 113.445H663.852V121H662.555V113.445H661.023V112.859L662.555 112.391V111.914C662.555 109.81 663.474 108.758 665.312 108.758C665.766 108.758 666.297 108.849 666.906 109.031L666.57 110.07C666.07 109.909 665.643 109.828 665.289 109.828C664.799 109.828 664.438 109.992 664.203 110.32C663.969 110.643 663.852 111.164 663.852 111.883V112.438H666.031V113.445ZM670.359 120.086C670.589 120.086 670.81 120.07 671.023 120.039C671.237 120.003 671.406 119.966 671.531 119.93V120.922C671.391 120.99 671.182 121.044 670.906 121.086C670.635 121.133 670.391 121.156 670.172 121.156C668.516 121.156 667.688 120.284 667.688 118.539V113.445H666.461V112.82L667.688 112.281L668.234 110.453H668.984V112.438H671.469V113.445H668.984V118.484C668.984 119 669.107 119.396 669.352 119.672C669.596 119.948 669.932 120.086 670.359 120.086ZM681.023 121.156C679.758 121.156 678.758 120.771 678.023 120C677.294 119.229 676.93 118.159 676.93 116.789C676.93 115.409 677.268 114.312 677.945 113.5C678.628 112.688 679.542 112.281 680.688 112.281C681.76 112.281 682.609 112.635 683.234 113.344C683.859 114.047 684.172 114.977 684.172 116.133V116.953H678.273C678.299 117.958 678.552 118.721 679.031 119.242C679.516 119.763 680.195 120.023 681.07 120.023C681.992 120.023 682.904 119.831 683.805 119.445V120.602C683.346 120.799 682.911 120.94 682.5 121.023C682.094 121.112 681.602 121.156 681.023 121.156ZM680.672 113.367C679.984 113.367 679.435 113.591 679.023 114.039C678.617 114.487 678.378 115.107 678.305 115.898H682.781C682.781 115.081 682.599 114.456 682.234 114.023C681.87 113.586 681.349 113.367 680.672 113.367ZM689.156 120.086C689.385 120.086 689.607 120.07 689.82 120.039C690.034 120.003 690.203 119.966 690.328 119.93V120.922C690.188 120.99 689.979 121.044 689.703 121.086C689.432 121.133 689.188 121.156 688.969 121.156C687.312 121.156 686.484 120.284 686.484 118.539V113.445H685.258V112.82L686.484 112.281L687.031 110.453H687.781V112.438H690.266V113.445H687.781V118.484C687.781 119 687.904 119.396 688.148 119.672C688.393 119.948 688.729 120.086 689.156 120.086ZM697.906 121V115.461C697.906 114.763 697.747 114.242 697.43 113.898C697.112 113.555 696.615 113.383 695.938 113.383C695.036 113.383 694.378 113.628 693.961 114.117C693.549 114.607 693.344 115.409 693.344 116.523V121H692.047V108.844H693.344V112.523C693.344 112.966 693.323 113.333 693.281 113.625H693.359C693.615 113.214 693.977 112.891 694.445 112.656C694.919 112.417 695.458 112.297 696.062 112.297C697.109 112.297 697.893 112.547 698.414 113.047C698.94 113.542 699.203 114.331 699.203 115.414V121H697.906ZM703.172 121H701.875V112.438H703.172V121ZM701.766 110.117C701.766 109.82 701.839 109.604 701.984 109.469C702.13 109.328 702.312 109.258 702.531 109.258C702.74 109.258 702.919 109.328 703.07 109.469C703.221 109.609 703.297 109.826 703.297 110.117C703.297 110.409 703.221 110.628 703.07 110.773C702.919 110.914 702.74 110.984 702.531 110.984C702.312 110.984 702.13 110.914 701.984 110.773C701.839 110.628 701.766 110.409 701.766 110.117ZM709.344 121.156C708.104 121.156 707.143 120.776 706.461 120.016C705.784 119.25 705.445 118.169 705.445 116.773C705.445 115.341 705.789 114.234 706.477 113.453C707.169 112.672 708.154 112.281 709.43 112.281C709.841 112.281 710.253 112.326 710.664 112.414C711.076 112.503 711.398 112.607 711.633 112.727L711.234 113.828C710.948 113.714 710.635 113.62 710.297 113.547C709.958 113.469 709.659 113.43 709.398 113.43C707.659 113.43 706.789 114.539 706.789 116.758C706.789 117.81 707 118.617 707.422 119.18C707.849 119.742 708.479 120.023 709.312 120.023C710.026 120.023 710.758 119.87 711.508 119.562V120.711C710.935 121.008 710.214 121.156 709.344 121.156ZM718.812 121L718.555 119.781H718.492C718.065 120.318 717.638 120.682 717.211 120.875C716.789 121.062 716.26 121.156 715.625 121.156C714.776 121.156 714.109 120.938 713.625 120.5C713.146 120.062 712.906 119.44 712.906 118.633C712.906 116.904 714.289 115.997 717.055 115.914L718.508 115.867V115.336C718.508 114.664 718.362 114.169 718.07 113.852C717.784 113.529 717.323 113.367 716.688 113.367C715.974 113.367 715.167 113.586 714.266 114.023L713.867 113.031C714.289 112.802 714.75 112.622 715.25 112.492C715.755 112.362 716.26 112.297 716.766 112.297C717.786 112.297 718.542 112.523 719.031 112.977C719.526 113.43 719.773 114.156 719.773 115.156V121H718.812ZM715.883 120.086C716.69 120.086 717.323 119.865 717.781 119.422C718.245 118.979 718.477 118.359 718.477 117.562V116.789L717.18 116.844C716.148 116.88 715.404 117.042 714.945 117.328C714.492 117.609 714.266 118.049 714.266 118.648C714.266 119.117 714.406 119.474 714.688 119.719C714.974 119.964 715.372 120.086 715.883 120.086ZM723.75 121H722.453V108.844H723.75V121ZM284.094 146.852H284.023C283.424 147.721 282.529 148.156 281.336 148.156C280.216 148.156 279.344 147.773 278.719 147.008C278.099 146.242 277.789 145.154 277.789 143.742C277.789 142.331 278.102 141.234 278.727 140.453C279.352 139.672 280.221 139.281 281.336 139.281C282.497 139.281 283.388 139.703 284.008 140.547H284.109L284.055 139.93L284.023 139.328V135.844H285.32V148H284.266L284.094 146.852ZM281.5 147.07C282.385 147.07 283.026 146.831 283.422 146.352C283.823 145.867 284.023 145.089 284.023 144.016V143.742C284.023 142.529 283.82 141.664 283.414 141.148C283.013 140.628 282.37 140.367 281.484 140.367C280.724 140.367 280.141 140.664 279.734 141.258C279.333 141.846 279.133 142.68 279.133 143.758C279.133 144.852 279.333 145.677 279.734 146.234C280.135 146.792 280.724 147.07 281.5 147.07ZM291.984 139.281C292.365 139.281 292.706 139.312 293.008 139.375L292.828 140.578C292.474 140.5 292.161 140.461 291.891 140.461C291.198 140.461 290.604 140.742 290.109 141.305C289.62 141.867 289.375 142.568 289.375 143.406V148H288.078V139.438H289.148L289.297 141.023H289.359C289.677 140.466 290.06 140.036 290.508 139.734C290.956 139.432 291.448 139.281 291.984 139.281ZM295.906 148H294.609V139.438H295.906V148ZM294.5 137.117C294.5 136.82 294.573 136.604 294.719 136.469C294.865 136.328 295.047 136.258 295.266 136.258C295.474 136.258 295.654 136.328 295.805 136.469C295.956 136.609 296.031 136.826 296.031 137.117C296.031 137.409 295.956 137.628 295.805 137.773C295.654 137.914 295.474 137.984 295.266 137.984C295.047 137.984 294.865 137.914 294.719 137.773C294.573 137.628 294.5 137.409 294.5 137.117ZM304.516 148V142.461C304.516 141.763 304.357 141.242 304.039 140.898C303.721 140.555 303.224 140.383 302.547 140.383C301.651 140.383 300.995 140.625 300.578 141.109C300.161 141.594 299.953 142.393 299.953 143.508V148H298.656V139.438H299.711L299.922 140.609H299.984C300.25 140.188 300.622 139.862 301.102 139.633C301.581 139.398 302.115 139.281 302.703 139.281C303.734 139.281 304.51 139.531 305.031 140.031C305.552 140.526 305.812 141.32 305.812 142.414V148H304.516ZM309.766 143.617C309.99 143.299 310.331 142.883 310.789 142.367L313.555 139.438H315.094L311.625 143.086L315.336 148H313.766L310.742 143.953L309.766 144.797V148H308.484V135.844H309.766V142.289C309.766 142.576 309.745 143.018 309.703 143.617H309.766ZM318.188 148H316.891V139.438H318.188V148ZM316.781 137.117C316.781 136.82 316.854 136.604 317 136.469C317.146 136.328 317.328 136.258 317.547 136.258C317.755 136.258 317.935 136.328 318.086 136.469C318.237 136.609 318.312 136.826 318.312 137.117C318.312 137.409 318.237 137.628 318.086 137.773C317.935 137.914 317.755 137.984 317.547 137.984C317.328 137.984 317.146 137.914 317 137.773C316.854 137.628 316.781 137.409 316.781 137.117ZM326.797 148V142.461C326.797 141.763 326.638 141.242 326.32 140.898C326.003 140.555 325.505 140.383 324.828 140.383C323.932 140.383 323.276 140.625 322.859 141.109C322.443 141.594 322.234 142.393 322.234 143.508V148H320.938V139.438H321.992L322.203 140.609H322.266C322.531 140.188 322.904 139.862 323.383 139.633C323.862 139.398 324.396 139.281 324.984 139.281C326.016 139.281 326.792 139.531 327.312 140.031C327.833 140.526 328.094 141.32 328.094 142.414V148H326.797ZM337.773 139.438V140.258L336.188 140.445C336.333 140.628 336.464 140.867 336.578 141.164C336.693 141.456 336.75 141.786 336.75 142.156C336.75 142.995 336.464 143.664 335.891 144.164C335.318 144.664 334.531 144.914 333.531 144.914C333.276 144.914 333.036 144.893 332.812 144.852C332.26 145.143 331.984 145.51 331.984 145.953C331.984 146.188 332.081 146.362 332.273 146.477C332.466 146.586 332.797 146.641 333.266 146.641H334.781C335.708 146.641 336.419 146.836 336.914 147.227C337.414 147.617 337.664 148.185 337.664 148.93C337.664 149.878 337.284 150.599 336.523 151.094C335.763 151.594 334.654 151.844 333.195 151.844C332.076 151.844 331.211 151.635 330.602 151.219C329.997 150.802 329.695 150.214 329.695 149.453C329.695 148.932 329.862 148.482 330.195 148.102C330.529 147.721 330.997 147.464 331.602 147.328C331.383 147.229 331.198 147.076 331.047 146.867C330.901 146.659 330.828 146.417 330.828 146.141C330.828 145.828 330.911 145.555 331.078 145.32C331.245 145.086 331.508 144.859 331.867 144.641C331.424 144.458 331.062 144.148 330.781 143.711C330.505 143.273 330.367 142.773 330.367 142.211C330.367 141.273 330.648 140.552 331.211 140.047C331.773 139.536 332.57 139.281 333.602 139.281C334.049 139.281 334.453 139.333 334.812 139.438H337.773ZM330.945 149.438C330.945 149.901 331.141 150.253 331.531 150.492C331.922 150.732 332.482 150.852 333.211 150.852C334.299 150.852 335.104 150.688 335.625 150.359C336.151 150.036 336.414 149.596 336.414 149.039C336.414 148.576 336.271 148.253 335.984 148.07C335.698 147.893 335.159 147.805 334.367 147.805H332.812C332.224 147.805 331.766 147.945 331.438 148.227C331.109 148.508 330.945 148.911 330.945 149.438ZM331.648 142.18C331.648 142.779 331.818 143.232 332.156 143.539C332.495 143.846 332.966 144 333.57 144C334.836 144 335.469 143.385 335.469 142.156C335.469 140.87 334.828 140.227 333.547 140.227C332.938 140.227 332.469 140.391 332.141 140.719C331.812 141.047 331.648 141.534 331.648 142.18ZM345.562 148L342.312 139.438H343.703L345.547 144.516C345.964 145.703 346.208 146.474 346.281 146.828H346.344C346.401 146.552 346.581 145.982 346.883 145.117C347.19 144.247 347.875 142.354 348.938 139.438H350.328L347.078 148H345.562ZM353 148H351.703V139.438H353V148ZM351.594 137.117C351.594 136.82 351.667 136.604 351.812 136.469C351.958 136.328 352.141 136.258 352.359 136.258C352.568 136.258 352.747 136.328 352.898 136.469C353.049 136.609 353.125 136.826 353.125 137.117C353.125 137.409 353.049 137.628 352.898 137.773C352.747 137.914 352.568 137.984 352.359 137.984C352.141 137.984 351.958 137.914 351.812 137.773C351.667 137.628 351.594 137.409 351.594 137.117ZM361.609 148V142.461C361.609 141.763 361.451 141.242 361.133 140.898C360.815 140.555 360.318 140.383 359.641 140.383C358.745 140.383 358.089 140.625 357.672 141.109C357.255 141.594 357.047 142.393 357.047 143.508V148H355.75V139.438H356.805L357.016 140.609H357.078C357.344 140.188 357.716 139.862 358.195 139.633C358.674 139.398 359.208 139.281 359.797 139.281C360.828 139.281 361.604 139.531 362.125 140.031C362.646 140.526 362.906 141.32 362.906 142.414V148H361.609ZM369.195 148.156C367.93 148.156 366.93 147.771 366.195 147C365.466 146.229 365.102 145.159 365.102 143.789C365.102 142.409 365.44 141.312 366.117 140.5C366.799 139.688 367.714 139.281 368.859 139.281C369.932 139.281 370.781 139.635 371.406 140.344C372.031 141.047 372.344 141.977 372.344 143.133V143.953H366.445C366.471 144.958 366.724 145.721 367.203 146.242C367.688 146.763 368.367 147.023 369.242 147.023C370.164 147.023 371.076 146.831 371.977 146.445V147.602C371.518 147.799 371.083 147.94 370.672 148.023C370.266 148.112 369.773 148.156 369.195 148.156ZM368.844 140.367C368.156 140.367 367.607 140.591 367.195 141.039C366.789 141.487 366.549 142.107 366.477 142.898H370.953C370.953 142.081 370.771 141.456 370.406 141.023C370.042 140.586 369.521 140.367 368.844 140.367ZM381.57 139.438V140.258L379.984 140.445C380.13 140.628 380.26 140.867 380.375 141.164C380.49 141.456 380.547 141.786 380.547 142.156C380.547 142.995 380.26 143.664 379.688 144.164C379.115 144.664 378.328 144.914 377.328 144.914C377.073 144.914 376.833 144.893 376.609 144.852C376.057 145.143 375.781 145.51 375.781 145.953C375.781 146.188 375.878 146.362 376.07 146.477C376.263 146.586 376.594 146.641 377.062 146.641H378.578C379.505 146.641 380.216 146.836 380.711 147.227C381.211 147.617 381.461 148.185 381.461 148.93C381.461 149.878 381.081 150.599 380.32 151.094C379.56 151.594 378.451 151.844 376.992 151.844C375.872 151.844 375.008 151.635 374.398 151.219C373.794 150.802 373.492 150.214 373.492 149.453C373.492 148.932 373.659 148.482 373.992 148.102C374.326 147.721 374.794 147.464 375.398 147.328C375.18 147.229 374.995 147.076 374.844 146.867C374.698 146.659 374.625 146.417 374.625 146.141C374.625 145.828 374.708 145.555 374.875 145.32C375.042 145.086 375.305 144.859 375.664 144.641C375.221 144.458 374.859 144.148 374.578 143.711C374.302 143.273 374.164 142.773 374.164 142.211C374.164 141.273 374.445 140.552 375.008 140.047C375.57 139.536 376.367 139.281 377.398 139.281C377.846 139.281 378.25 139.333 378.609 139.438H381.57ZM374.742 149.438C374.742 149.901 374.938 150.253 375.328 150.492C375.719 150.732 376.279 150.852 377.008 150.852C378.096 150.852 378.901 150.688 379.422 150.359C379.948 150.036 380.211 149.596 380.211 149.039C380.211 148.576 380.068 148.253 379.781 148.07C379.495 147.893 378.956 147.805 378.164 147.805H376.609C376.021 147.805 375.562 147.945 375.234 148.227C374.906 148.508 374.742 148.911 374.742 149.438ZM375.445 142.18C375.445 142.779 375.615 143.232 375.953 143.539C376.292 143.846 376.763 144 377.367 144C378.633 144 379.266 143.385 379.266 142.156C379.266 140.87 378.625 140.227 377.344 140.227C376.734 140.227 376.266 140.391 375.938 140.719C375.609 141.047 375.445 141.534 375.445 142.18ZM388.594 148L388.336 146.781H388.273C387.846 147.318 387.419 147.682 386.992 147.875C386.57 148.062 386.042 148.156 385.406 148.156C384.557 148.156 383.891 147.938 383.406 147.5C382.927 147.062 382.688 146.44 382.688 145.633C382.688 143.904 384.07 142.997 386.836 142.914L388.289 142.867V142.336C388.289 141.664 388.143 141.169 387.852 140.852C387.565 140.529 387.104 140.367 386.469 140.367C385.755 140.367 384.948 140.586 384.047 141.023L383.648 140.031C384.07 139.802 384.531 139.622 385.031 139.492C385.536 139.362 386.042 139.297 386.547 139.297C387.568 139.297 388.323 139.523 388.812 139.977C389.307 140.43 389.555 141.156 389.555 142.156V148H388.594ZM385.664 147.086C386.471 147.086 387.104 146.865 387.562 146.422C388.026 145.979 388.258 145.359 388.258 144.562V143.789L386.961 143.844C385.93 143.88 385.185 144.042 384.727 144.328C384.273 144.609 384.047 145.049 384.047 145.648C384.047 146.117 384.188 146.474 384.469 146.719C384.755 146.964 385.154 147.086 385.664 147.086ZM396.141 139.281C396.521 139.281 396.862 139.312 397.164 139.375L396.984 140.578C396.63 140.5 396.318 140.461 396.047 140.461C395.354 140.461 394.76 140.742 394.266 141.305C393.776 141.867 393.531 142.568 393.531 143.406V148H392.234V139.438H393.305L393.453 141.023H393.516C393.833 140.466 394.216 140.036 394.664 139.734C395.112 139.432 395.604 139.281 396.141 139.281ZM408.188 148L407.93 146.781H407.867C407.44 147.318 407.013 147.682 406.586 147.875C406.164 148.062 405.635 148.156 405 148.156C404.151 148.156 403.484 147.938 403 147.5C402.521 147.062 402.281 146.44 402.281 145.633C402.281 143.904 403.664 142.997 406.43 142.914L407.883 142.867V142.336C407.883 141.664 407.737 141.169 407.445 140.852C407.159 140.529 406.698 140.367 406.062 140.367C405.349 140.367 404.542 140.586 403.641 141.023L403.242 140.031C403.664 139.802 404.125 139.622 404.625 139.492C405.13 139.362 405.635 139.297 406.141 139.297C407.161 139.297 407.917 139.523 408.406 139.977C408.901 140.43 409.148 141.156 409.148 142.156V148H408.188ZM405.258 147.086C406.065 147.086 406.698 146.865 407.156 146.422C407.62 145.979 407.852 145.359 407.852 144.562V143.789L406.555 143.844C405.523 143.88 404.779 144.042 404.32 144.328C403.867 144.609 403.641 145.049 403.641 145.648C403.641 146.117 403.781 146.474 404.062 146.719C404.349 146.964 404.747 147.086 405.258 147.086ZM413.047 139.438V144.992C413.047 145.69 413.206 146.211 413.523 146.555C413.841 146.898 414.339 147.07 415.016 147.07C415.911 147.07 416.565 146.826 416.977 146.336C417.393 145.846 417.602 145.047 417.602 143.938V139.438H418.898V148H417.828L417.641 146.852H417.57C417.305 147.273 416.935 147.596 416.461 147.82C415.992 148.044 415.456 148.156 414.852 148.156C413.81 148.156 413.029 147.909 412.508 147.414C411.992 146.919 411.734 146.128 411.734 145.039V139.438H413.047ZM427.18 145.664C427.18 146.461 426.883 147.076 426.289 147.508C425.695 147.94 424.862 148.156 423.789 148.156C422.654 148.156 421.768 147.977 421.133 147.617V146.414C421.544 146.622 421.984 146.786 422.453 146.906C422.927 147.026 423.383 147.086 423.82 147.086C424.497 147.086 425.018 146.979 425.383 146.766C425.747 146.547 425.93 146.216 425.93 145.773C425.93 145.44 425.784 145.156 425.492 144.922C425.206 144.682 424.643 144.401 423.805 144.078C423.008 143.781 422.44 143.523 422.102 143.305C421.768 143.081 421.518 142.828 421.352 142.547C421.19 142.266 421.109 141.93 421.109 141.539C421.109 140.841 421.393 140.292 421.961 139.891C422.529 139.484 423.307 139.281 424.297 139.281C425.219 139.281 426.12 139.469 427 139.844L426.539 140.898C425.68 140.544 424.901 140.367 424.203 140.367C423.589 140.367 423.125 140.464 422.812 140.656C422.5 140.849 422.344 141.115 422.344 141.453C422.344 141.682 422.401 141.878 422.516 142.039C422.635 142.201 422.826 142.354 423.086 142.5C423.346 142.646 423.846 142.857 424.586 143.133C425.602 143.503 426.286 143.875 426.641 144.25C427 144.625 427.18 145.096 427.18 145.664ZM432.062 147.086C432.292 147.086 432.513 147.07 432.727 147.039C432.94 147.003 433.109 146.966 433.234 146.93V147.922C433.094 147.99 432.885 148.044 432.609 148.086C432.339 148.133 432.094 148.156 431.875 148.156C430.219 148.156 429.391 147.284 429.391 145.539V140.445H428.164V139.82L429.391 139.281L429.938 137.453H430.688V139.438H433.172V140.445H430.688V145.484C430.688 146 430.81 146.396 431.055 146.672C431.299 146.948 431.635 147.086 432.062 147.086ZM436.25 148H434.953V139.438H436.25V148ZM434.844 137.117C434.844 136.82 434.917 136.604 435.062 136.469C435.208 136.328 435.391 136.258 435.609 136.258C435.818 136.258 435.997 136.328 436.148 136.469C436.299 136.609 436.375 136.826 436.375 137.117C436.375 137.409 436.299 137.628 436.148 137.773C435.997 137.914 435.818 137.984 435.609 137.984C435.391 137.984 435.208 137.914 435.062 137.773C434.917 137.628 434.844 137.409 434.844 137.117ZM444.859 148V142.461C444.859 141.763 444.701 141.242 444.383 140.898C444.065 140.555 443.568 140.383 442.891 140.383C441.995 140.383 441.339 140.625 440.922 141.109C440.505 141.594 440.297 142.393 440.297 143.508V148H439V139.438H440.055L440.266 140.609H440.328C440.594 140.188 440.966 139.862 441.445 139.633C441.924 139.398 442.458 139.281 443.047 139.281C444.078 139.281 444.854 139.531 445.375 140.031C445.896 140.526 446.156 141.32 446.156 142.414V148H444.859ZM451.594 147.086C451.823 147.086 452.044 147.07 452.258 147.039C452.471 147.003 452.641 146.966 452.766 146.93V147.922C452.625 147.99 452.417 148.044 452.141 148.086C451.87 148.133 451.625 148.156 451.406 148.156C449.75 148.156 448.922 147.284 448.922 145.539V140.445H447.695V139.82L448.922 139.281L449.469 137.453H450.219V139.438H452.703V140.445H450.219V145.484C450.219 146 450.341 146.396 450.586 146.672C450.831 146.948 451.167 147.086 451.594 147.086Z" fill="#5A5A5A"/>
</svg>
