<svg width="635" height="402" viewBox="0 0 635 402" fill="none" xmlns="http://www.w3.org/2000/svg">
<path d="M26.95 43.3V63.65H62.59V77.95H26.95V106H9.13V29H67.32V43.3H26.95ZM136.29 46.82V106H120.01V98.96C117.737 101.527 115.023 103.507 111.87 104.9C108.717 106.22 105.307 106.88 101.64 106.88C93.8667 106.88 87.7067 104.643 83.16 100.17C78.6133 95.6967 76.34 89.06 76.34 80.26V46.82H93.5V77.73C93.5 87.2633 97.4967 92.03 105.49 92.03C109.597 92.03 112.897 90.71 115.39 88.07C117.883 85.3567 119.13 81.36 119.13 76.08V46.82H136.29ZM168.578 54.63C170.631 51.77 173.381 49.6067 176.828 48.14C180.348 46.6733 184.381 45.94 188.928 45.94V61.78C187.021 61.6333 185.738 61.56 185.078 61.56C180.164 61.56 176.314 62.9533 173.528 65.74C170.741 68.4533 169.348 72.56 169.348 78.06V106H152.188V46.82H168.578V54.63ZM235.101 45.94C242.434 45.94 248.338 48.14 252.811 52.54C257.358 56.94 259.631 63.4667 259.631 72.12V106H242.471V74.76C242.471 70.0667 241.444 66.5833 239.391 64.31C237.338 61.9633 234.368 60.79 230.481 60.79C226.154 60.79 222.708 62.1467 220.141 64.86C217.574 67.5 216.291 71.46 216.291 76.74V106H199.131V46.82H215.521V53.75C217.794 51.2567 220.618 49.35 223.991 48.03C227.364 46.6367 231.068 45.94 235.101 45.94ZM275.186 46.82H292.346V106H275.186V46.82ZM283.766 38.57C280.612 38.57 278.046 37.6533 276.066 35.82C274.086 33.9867 273.096 31.7133 273.096 29C273.096 26.2867 274.086 24.0133 276.066 22.18C278.046 20.3467 280.612 19.43 283.766 19.43C286.919 19.43 289.486 20.31 291.466 22.07C293.446 23.83 294.436 26.03 294.436 28.67C294.436 31.53 293.446 33.9133 291.466 35.82C289.486 37.6533 286.919 38.57 283.766 38.57ZM346.442 103.14C344.755 104.387 342.665 105.34 340.172 106C337.752 106.587 335.185 106.88 332.472 106.88C325.432 106.88 319.968 105.083 316.082 101.49C312.268 97.8967 310.362 92.6167 310.362 85.65V61.34H301.232V48.14H310.362V33.73H327.522V48.14H342.262V61.34H327.522V85.43C327.522 87.9233 328.145 89.8667 329.392 91.26C330.712 92.58 332.545 93.24 334.892 93.24C337.605 93.24 339.915 92.5067 341.822 91.04L346.442 103.14ZM415.694 46.82V106H399.414V98.96C397.141 101.527 394.428 103.507 391.274 104.9C388.121 106.22 384.711 106.88 381.044 106.88C373.271 106.88 367.111 104.643 362.564 100.17C358.018 95.6967 355.744 89.06 355.744 80.26V46.82H372.904V77.73C372.904 87.2633 376.901 92.03 384.894 92.03C389.001 92.03 392.301 90.71 394.794 88.07C397.288 85.3567 398.534 81.36 398.534 76.08V46.82H415.694ZM447.982 54.63C450.035 51.77 452.785 49.6067 456.232 48.14C459.752 46.6733 463.785 45.94 468.332 45.94V61.78C466.425 61.6333 465.142 61.56 464.482 61.56C459.569 61.56 455.719 62.9533 452.932 65.74C450.145 68.4533 448.752 72.56 448.752 78.06V106H431.592V46.82H447.982V54.63ZM535.968 76.63C535.968 76.85 535.858 78.39 535.638 81.25H490.868C491.675 84.9167 493.581 87.8133 496.588 89.94C499.595 92.0667 503.335 93.13 507.808 93.13C510.888 93.13 513.601 92.69 515.948 91.81C518.368 90.8567 520.605 89.39 522.658 87.41L531.788 97.31C526.215 103.69 518.075 106.88 507.368 106.88C500.695 106.88 494.791 105.597 489.658 103.03C484.525 100.39 480.565 96.76 477.778 92.14C474.991 87.52 473.598 82.2767 473.598 76.41C473.598 70.6167 474.955 65.41 477.668 60.79C480.455 56.0967 484.231 52.4667 488.998 49.9C493.838 47.26 499.228 45.94 505.168 45.94C510.961 45.94 516.205 47.1867 520.898 49.68C525.591 52.1733 529.258 55.7667 531.898 60.46C534.611 65.08 535.968 70.47 535.968 76.63ZM505.278 58.92C501.391 58.92 498.128 60.02 495.488 62.22C492.848 64.42 491.235 67.4267 490.648 71.24H519.798C519.211 67.5 517.598 64.53 514.958 62.33C512.318 60.0567 509.091 58.92 505.278 58.92ZM36.52 240.88C30.2133 240.88 24.53 239.597 19.47 237.03C14.4833 234.39 10.56 230.76 7.7 226.14C4.91333 221.52 3.52 216.277 3.52 210.41C3.52 204.543 4.91333 199.3 7.7 194.68C10.56 190.06 14.4833 186.467 19.47 183.9C24.53 181.26 30.2133 179.94 36.52 179.94C42.7533 179.94 48.18 181.26 52.8 183.9C57.4933 186.467 60.9033 190.17 63.03 195.01L49.72 202.16C46.64 196.733 42.2033 194.02 36.41 194.02C31.9367 194.02 28.2333 195.487 25.3 198.42C22.3667 201.353 20.9 205.35 20.9 210.41C20.9 215.47 22.3667 219.467 25.3 222.4C28.2333 225.333 31.9367 226.8 36.41 226.8C42.2767 226.8 46.7133 224.087 49.72 218.66L63.03 225.92C60.9033 230.613 57.4933 234.28 52.8 236.92C48.18 239.56 42.7533 240.88 36.52 240.88ZM100.318 240.88C94.0849 240.88 88.4749 239.597 83.4883 237.03C78.5749 234.39 74.7249 230.76 71.9383 226.14C69.1516 221.52 67.7583 216.277 67.7583 210.41C67.7583 204.543 69.1516 199.3 71.9383 194.68C74.7249 190.06 78.5749 186.467 83.4883 183.9C88.4749 181.26 94.0849 179.94 100.318 179.94C106.552 179.94 112.125 181.26 117.038 183.9C121.952 186.467 125.802 190.06 128.588 194.68C131.375 199.3 132.768 204.543 132.768 210.41C132.768 216.277 131.375 221.52 128.588 226.14C125.802 230.76 121.952 234.39 117.038 237.03C112.125 239.597 106.552 240.88 100.318 240.88ZM100.318 226.8C104.718 226.8 108.312 225.333 111.098 222.4C113.958 219.393 115.388 215.397 115.388 210.41C115.388 205.423 113.958 201.463 111.098 198.53C108.312 195.523 104.718 194.02 100.318 194.02C95.9183 194.02 92.2883 195.523 89.4283 198.53C86.5683 201.463 85.1383 205.423 85.1383 210.41C85.1383 215.397 86.5683 219.393 89.4283 222.4C92.2883 225.333 95.9183 226.8 100.318 226.8ZM144.238 158.38H161.398V240H144.238V158.38ZM177.324 158.38H194.484V240H177.324V158.38ZM268.38 210.63C268.38 210.85 268.27 212.39 268.05 215.25H223.28C224.087 218.917 225.994 221.813 229 223.94C232.007 226.067 235.747 227.13 240.22 227.13C243.3 227.13 246.014 226.69 248.36 225.81C250.78 224.857 253.017 223.39 255.07 221.41L264.2 231.31C258.627 237.69 250.487 240.88 239.78 240.88C233.107 240.88 227.204 239.597 222.07 237.03C216.937 234.39 212.977 230.76 210.19 226.14C207.404 221.52 206.01 216.277 206.01 210.41C206.01 204.617 207.367 199.41 210.08 194.79C212.867 190.097 216.644 186.467 221.41 183.9C226.25 181.26 231.64 179.94 237.58 179.94C243.374 179.94 248.617 181.187 253.31 183.68C258.004 186.173 261.67 189.767 264.31 194.46C267.024 199.08 268.38 204.47 268.38 210.63ZM237.69 192.92C233.804 192.92 230.54 194.02 227.9 196.22C225.26 198.42 223.647 201.427 223.06 205.24H252.21C251.624 201.5 250.01 198.53 247.37 196.33C244.73 194.057 241.504 192.92 237.69 192.92ZM308.405 240.88C302.098 240.88 296.415 239.597 291.355 237.03C286.368 234.39 282.445 230.76 279.585 226.14C276.798 221.52 275.405 216.277 275.405 210.41C275.405 204.543 276.798 199.3 279.585 194.68C282.445 190.06 286.368 186.467 291.355 183.9C296.415 181.26 302.098 179.94 308.405 179.94C314.638 179.94 320.065 181.26 324.685 183.9C329.378 186.467 332.788 190.17 334.915 195.01L321.605 202.16C318.525 196.733 314.088 194.02 308.295 194.02C303.821 194.02 300.118 195.487 297.185 198.42C294.251 201.353 292.785 205.35 292.785 210.41C292.785 215.47 294.251 219.467 297.185 222.4C300.118 225.333 303.821 226.8 308.295 226.8C314.161 226.8 318.598 224.087 321.605 218.66L334.915 225.92C332.788 230.613 329.378 234.28 324.685 236.92C320.065 239.56 314.638 240.88 308.405 240.88ZM383.824 237.14C382.138 238.387 380.048 239.34 377.554 240C375.134 240.587 372.568 240.88 369.854 240.88C362.814 240.88 357.351 239.083 353.464 235.49C349.651 231.897 347.744 226.617 347.744 219.65V195.34H338.614V182.14H347.744V167.73H364.904V182.14H379.644V195.34H364.904V219.43C364.904 221.923 365.528 223.867 366.774 225.26C368.094 226.58 369.928 227.24 372.274 227.24C374.988 227.24 377.298 226.507 379.204 225.04L383.824 237.14ZM393.457 180.82H410.617V240H393.457V180.82ZM402.037 172.57C398.884 172.57 396.317 171.653 394.337 169.82C392.357 167.987 391.367 165.713 391.367 163C391.367 160.287 392.357 158.013 394.337 156.18C396.317 154.347 398.884 153.43 402.037 153.43C405.19 153.43 407.757 154.31 409.737 156.07C411.717 157.83 412.707 160.03 412.707 162.67C412.707 165.53 411.717 167.913 409.737 169.82C407.757 171.653 405.19 172.57 402.037 172.57ZM454.703 240.88C448.47 240.88 442.86 239.597 437.873 237.03C432.96 234.39 429.11 230.76 426.323 226.14C423.536 221.52 422.143 216.277 422.143 210.41C422.143 204.543 423.536 199.3 426.323 194.68C429.11 190.06 432.96 186.467 437.873 183.9C442.86 181.26 448.47 179.94 454.703 179.94C460.936 179.94 466.51 181.26 471.423 183.9C476.336 186.467 480.186 190.06 482.973 194.68C485.76 199.3 487.153 204.543 487.153 210.41C487.153 216.277 485.76 221.52 482.973 226.14C480.186 230.76 476.336 234.39 471.423 237.03C466.51 239.597 460.936 240.88 454.703 240.88ZM454.703 226.8C459.103 226.8 462.696 225.333 465.483 222.4C468.343 219.393 469.773 215.397 469.773 210.41C469.773 205.423 468.343 201.463 465.483 198.53C462.696 195.523 459.103 194.02 454.703 194.02C450.303 194.02 446.673 195.523 443.813 198.53C440.953 201.463 439.523 205.423 439.523 210.41C439.523 215.397 440.953 219.393 443.813 222.4C446.673 225.333 450.303 226.8 454.703 226.8ZM534.593 179.94C541.926 179.94 547.83 182.14 552.303 186.54C556.85 190.94 559.123 197.467 559.123 206.12V240H541.963V208.76C541.963 204.067 540.936 200.583 538.883 198.31C536.83 195.963 533.86 194.79 529.973 194.79C525.646 194.79 522.2 196.147 519.633 198.86C517.066 201.5 515.783 205.46 515.783 210.74V240H498.623V180.82H515.013V187.75C517.286 185.257 520.11 183.35 523.483 182.03C526.856 180.637 530.56 179.94 534.593 179.94Z" fill="#363838"/>
<path d="M10.6875 335.18C10.6875 337.065 10.1745 338.508 9.14844 339.508C8.1276 340.503 6.65625 341 4.73438 341H1.57031V329.578H5.07031C6.84635 329.578 8.22656 330.07 9.21094 331.055C10.1953 332.039 10.6875 333.414 10.6875 335.18ZM9.28125 335.227C9.28125 333.737 8.90625 332.615 8.15625 331.859C7.41146 331.104 6.30208 330.727 4.82812 330.727H2.89844V339.852H4.51562C6.09896 339.852 7.28906 339.464 8.08594 338.688C8.88281 337.906 9.28125 336.753 9.28125 335.227ZM16.6641 341.156C15.3984 341.156 14.3984 340.771 13.6641 340C12.9349 339.229 12.5703 338.159 12.5703 336.789C12.5703 335.409 12.9089 334.312 13.5859 333.5C14.2682 332.688 15.1823 332.281 16.3281 332.281C17.401 332.281 18.25 332.635 18.875 333.344C19.5 334.047 19.8125 334.977 19.8125 336.133V336.953H13.9141C13.9401 337.958 14.1927 338.721 14.6719 339.242C15.1562 339.763 15.8359 340.023 16.7109 340.023C17.6328 340.023 18.5443 339.831 19.4453 339.445V340.602C18.987 340.799 18.5521 340.94 18.1406 341.023C17.7344 341.112 17.2422 341.156 16.6641 341.156ZM16.3125 333.367C15.625 333.367 15.0755 333.591 14.6641 334.039C14.2578 334.487 14.0182 335.107 13.9453 335.898H18.4219C18.4219 335.081 18.2396 334.456 17.875 334.023C17.5104 333.586 16.9896 333.367 16.3125 333.367ZM25.6484 341.156C24.3828 341.156 23.3828 340.771 22.6484 340C21.9193 339.229 21.5547 338.159 21.5547 336.789C21.5547 335.409 21.8932 334.312 22.5703 333.5C23.2526 332.688 24.1667 332.281 25.3125 332.281C26.3854 332.281 27.2344 332.635 27.8594 333.344C28.4844 334.047 28.7969 334.977 28.7969 336.133V336.953H22.8984C22.9245 337.958 23.1771 338.721 23.6562 339.242C24.1406 339.763 24.8203 340.023 25.6953 340.023C26.6172 340.023 27.5286 339.831 28.4297 339.445V340.602C27.9714 340.799 27.5365 340.94 27.125 341.023C26.7188 341.112 26.2266 341.156 25.6484 341.156ZM25.2969 333.367C24.6094 333.367 24.0599 333.591 23.6484 334.039C23.2422 334.487 23.0026 335.107 22.9297 335.898H27.4062C27.4062 335.081 27.224 334.456 26.8594 334.023C26.4948 333.586 25.974 333.367 25.2969 333.367ZM35 341.156C34.4427 341.156 33.9323 341.055 33.4688 340.852C33.0104 340.643 32.625 340.326 32.3125 339.898H32.2188C32.2812 340.398 32.3125 340.872 32.3125 341.32V344.844H31.0156V332.438H32.0703L32.25 333.609H32.3125C32.6458 333.141 33.0339 332.802 33.4766 332.594C33.9193 332.385 34.4271 332.281 35 332.281C36.1354 332.281 37.0104 332.669 37.625 333.445C38.2448 334.221 38.5547 335.31 38.5547 336.711C38.5547 338.117 38.2396 339.211 37.6094 339.992C36.9844 340.768 36.1146 341.156 35 341.156ZM34.8125 333.383C33.9375 333.383 33.3047 333.625 32.9141 334.109C32.5234 334.594 32.3229 335.365 32.3125 336.422V336.711C32.3125 337.914 32.513 338.776 32.9141 339.297C33.3151 339.812 33.9583 340.07 34.8438 340.07C35.5833 340.07 36.1615 339.771 36.5781 339.172C37 338.573 37.2109 337.747 37.2109 336.695C37.2109 335.628 37 334.81 36.5781 334.242C36.1615 333.669 35.5729 333.383 34.8125 333.383ZM46.8594 341L43.6094 332.438H45L46.8438 337.516C47.2604 338.703 47.5052 339.474 47.5781 339.828H47.6406C47.6979 339.552 47.8776 338.982 48.1797 338.117C48.487 337.247 49.1719 335.354 50.2344 332.438H51.625L48.375 341H46.8594ZM55.7969 332.438H57.1875L59.0625 337.32C59.474 338.435 59.7292 339.24 59.8281 339.734H59.8906C59.9583 339.469 60.099 339.016 60.3125 338.375C60.5312 337.729 61.2396 335.75 62.4375 332.438H63.8281L60.1484 342.188C59.7839 343.151 59.3568 343.833 58.8672 344.234C58.3828 344.641 57.7865 344.844 57.0781 344.844C56.6823 344.844 56.2917 344.799 55.9062 344.711V343.672C56.1927 343.734 56.513 343.766 56.8672 343.766C57.7578 343.766 58.3932 343.266 58.7734 342.266L59.25 341.047L55.7969 332.438ZM72.6094 336.711C72.6094 338.107 72.2578 339.198 71.5547 339.984C70.8516 340.766 69.8802 341.156 68.6406 341.156C67.875 341.156 67.1953 340.977 66.6016 340.617C66.0078 340.258 65.5495 339.742 65.2266 339.07C64.9036 338.398 64.7422 337.612 64.7422 336.711C64.7422 335.315 65.0911 334.229 65.7891 333.453C66.487 332.672 67.4557 332.281 68.6953 332.281C69.8932 332.281 70.8438 332.68 71.5469 333.477C72.2552 334.273 72.6094 335.352 72.6094 336.711ZM66.0859 336.711C66.0859 337.805 66.3047 338.638 66.7422 339.211C67.1797 339.784 67.8229 340.07 68.6719 340.07C69.5208 340.07 70.1641 339.786 70.6016 339.219C71.0443 338.646 71.2656 337.81 71.2656 336.711C71.2656 335.622 71.0443 334.797 70.6016 334.234C70.1641 333.667 69.5156 333.383 68.6562 333.383C67.8073 333.383 67.1667 333.661 66.7344 334.219C66.3021 334.776 66.0859 335.607 66.0859 336.711ZM76.1094 332.438V337.992C76.1094 338.69 76.2682 339.211 76.5859 339.555C76.9036 339.898 77.401 340.07 78.0781 340.07C78.974 340.07 79.6276 339.826 80.0391 339.336C80.4557 338.846 80.6641 338.047 80.6641 336.938V332.438H81.9609V341H80.8906L80.7031 339.852H80.6328C80.3672 340.273 79.9974 340.596 79.5234 340.82C79.0547 341.044 78.5182 341.156 77.9141 341.156C76.8724 341.156 76.0911 340.909 75.5703 340.414C75.0547 339.919 74.7969 339.128 74.7969 338.039V332.438H76.1094ZM92.8594 341.156C92.3021 341.156 91.7917 341.055 91.3281 340.852C90.8698 340.643 90.4844 340.326 90.1719 339.898H90.0781C90.1406 340.398 90.1719 340.872 90.1719 341.32V344.844H88.875V332.438H89.9297L90.1094 333.609H90.1719C90.5052 333.141 90.8932 332.802 91.3359 332.594C91.7786 332.385 92.2865 332.281 92.8594 332.281C93.9948 332.281 94.8698 332.669 95.4844 333.445C96.1042 334.221 96.4141 335.31 96.4141 336.711C96.4141 338.117 96.099 339.211 95.4688 339.992C94.8438 340.768 93.974 341.156 92.8594 341.156ZM92.6719 333.383C91.7969 333.383 91.1641 333.625 90.7734 334.109C90.3828 334.594 90.1823 335.365 90.1719 336.422V336.711C90.1719 337.914 90.3724 338.776 90.7734 339.297C91.1745 339.812 91.8177 340.07 92.7031 340.07C93.4427 340.07 94.0208 339.771 94.4375 339.172C94.8594 338.573 95.0703 337.747 95.0703 336.695C95.0703 335.628 94.8594 334.81 94.4375 334.242C94.0208 333.669 93.4323 333.383 92.6719 333.383ZM102.594 332.281C102.974 332.281 103.315 332.312 103.617 332.375L103.438 333.578C103.083 333.5 102.771 333.461 102.5 333.461C101.807 333.461 101.214 333.742 100.719 334.305C100.229 334.867 99.9844 335.568 99.9844 336.406V341H98.6875V332.438H99.7578L99.9062 334.023H99.9688C100.286 333.466 100.669 333.036 101.117 332.734C101.565 332.432 102.057 332.281 102.594 332.281ZM112.609 336.711C112.609 338.107 112.258 339.198 111.555 339.984C110.852 340.766 109.88 341.156 108.641 341.156C107.875 341.156 107.195 340.977 106.602 340.617C106.008 340.258 105.549 339.742 105.227 339.07C104.904 338.398 104.742 337.612 104.742 336.711C104.742 335.315 105.091 334.229 105.789 333.453C106.487 332.672 107.456 332.281 108.695 332.281C109.893 332.281 110.844 332.68 111.547 333.477C112.255 334.273 112.609 335.352 112.609 336.711ZM106.086 336.711C106.086 337.805 106.305 338.638 106.742 339.211C107.18 339.784 107.823 340.07 108.672 340.07C109.521 340.07 110.164 339.786 110.602 339.219C111.044 338.646 111.266 337.81 111.266 336.711C111.266 335.622 111.044 334.797 110.602 334.234C110.164 333.667 109.516 333.383 108.656 333.383C107.807 333.383 107.167 333.661 106.734 334.219C106.302 334.776 106.086 335.607 106.086 336.711ZM118.875 332.297C120 332.297 120.872 332.682 121.492 333.453C122.117 334.219 122.43 335.305 122.43 336.711C122.43 338.117 122.115 339.211 121.484 339.992C120.859 340.768 119.99 341.156 118.875 341.156C118.318 341.156 117.807 341.055 117.344 340.852C116.885 340.643 116.5 340.326 116.188 339.898H116.094L115.82 341H114.891V328.844H116.188V331.797C116.188 332.458 116.167 333.052 116.125 333.578H116.188C116.792 332.724 117.688 332.297 118.875 332.297ZM118.688 333.383C117.802 333.383 117.164 333.638 116.773 334.148C116.383 334.654 116.188 335.508 116.188 336.711C116.188 337.914 116.388 338.776 116.789 339.297C117.19 339.812 117.833 340.07 118.719 340.07C119.516 340.07 120.109 339.781 120.5 339.203C120.891 338.62 121.086 337.784 121.086 336.695C121.086 335.581 120.891 334.75 120.5 334.203C120.109 333.656 119.505 333.383 118.688 333.383ZM129.969 341L129.711 339.781H129.648C129.221 340.318 128.794 340.682 128.367 340.875C127.945 341.062 127.417 341.156 126.781 341.156C125.932 341.156 125.266 340.938 124.781 340.5C124.302 340.062 124.062 339.44 124.062 338.633C124.062 336.904 125.445 335.997 128.211 335.914L129.664 335.867V335.336C129.664 334.664 129.518 334.169 129.227 333.852C128.94 333.529 128.479 333.367 127.844 333.367C127.13 333.367 126.323 333.586 125.422 334.023L125.023 333.031C125.445 332.802 125.906 332.622 126.406 332.492C126.911 332.362 127.417 332.297 127.922 332.297C128.943 332.297 129.698 332.523 130.188 332.977C130.682 333.43 130.93 334.156 130.93 335.156V341H129.969ZM127.039 340.086C127.846 340.086 128.479 339.865 128.938 339.422C129.401 338.979 129.633 338.359 129.633 337.562V336.789L128.336 336.844C127.305 336.88 126.56 337.042 126.102 337.328C125.648 337.609 125.422 338.049 125.422 338.648C125.422 339.117 125.562 339.474 125.844 339.719C126.13 339.964 126.529 340.086 127.039 340.086ZM137.594 332.297C138.719 332.297 139.591 332.682 140.211 333.453C140.836 334.219 141.148 335.305 141.148 336.711C141.148 338.117 140.833 339.211 140.203 339.992C139.578 340.768 138.708 341.156 137.594 341.156C137.036 341.156 136.526 341.055 136.062 340.852C135.604 340.643 135.219 340.326 134.906 339.898H134.812L134.539 341H133.609V328.844H134.906V331.797C134.906 332.458 134.885 333.052 134.844 333.578H134.906C135.51 332.724 136.406 332.297 137.594 332.297ZM137.406 333.383C136.521 333.383 135.883 333.638 135.492 334.148C135.102 334.654 134.906 335.508 134.906 336.711C134.906 337.914 135.107 338.776 135.508 339.297C135.909 339.812 136.552 340.07 137.438 340.07C138.234 340.07 138.828 339.781 139.219 339.203C139.609 338.62 139.805 337.784 139.805 336.695C139.805 335.581 139.609 334.75 139.219 334.203C138.828 333.656 138.224 333.383 137.406 333.383ZM144.719 341H143.422V328.844H144.719V341ZM146.109 332.438H147.5L149.375 337.32C149.786 338.435 150.042 339.24 150.141 339.734H150.203C150.271 339.469 150.411 339.016 150.625 338.375C150.844 337.729 151.552 335.75 152.75 332.438H154.141L150.461 342.188C150.096 343.151 149.669 343.833 149.18 344.234C148.695 344.641 148.099 344.844 147.391 344.844C146.995 344.844 146.604 344.799 146.219 344.711V343.672C146.505 343.734 146.826 343.766 147.18 343.766C148.07 343.766 148.706 343.266 149.086 342.266L149.562 341.047L146.109 332.438ZM165.547 341V335.461C165.547 334.763 165.388 334.242 165.07 333.898C164.753 333.555 164.255 333.383 163.578 333.383C162.677 333.383 162.018 333.628 161.602 334.117C161.19 334.607 160.984 335.409 160.984 336.523V341H159.688V328.844H160.984V332.523C160.984 332.966 160.964 333.333 160.922 333.625H161C161.255 333.214 161.617 332.891 162.086 332.656C162.56 332.417 163.099 332.297 163.703 332.297C164.75 332.297 165.534 332.547 166.055 333.047C166.581 333.542 166.844 334.331 166.844 335.414V341H165.547ZM174.781 341L174.523 339.781H174.461C174.034 340.318 173.607 340.682 173.18 340.875C172.758 341.062 172.229 341.156 171.594 341.156C170.745 341.156 170.078 340.938 169.594 340.5C169.115 340.062 168.875 339.44 168.875 338.633C168.875 336.904 170.258 335.997 173.023 335.914L174.477 335.867V335.336C174.477 334.664 174.331 334.169 174.039 333.852C173.753 333.529 173.292 333.367 172.656 333.367C171.943 333.367 171.135 333.586 170.234 334.023L169.836 333.031C170.258 332.802 170.719 332.622 171.219 332.492C171.724 332.362 172.229 332.297 172.734 332.297C173.755 332.297 174.51 332.523 175 332.977C175.495 333.43 175.742 334.156 175.742 335.156V341H174.781ZM171.852 340.086C172.659 340.086 173.292 339.865 173.75 339.422C174.214 338.979 174.445 338.359 174.445 337.562V336.789L173.148 336.844C172.117 336.88 171.372 337.042 170.914 337.328C170.461 337.609 170.234 338.049 170.234 338.648C170.234 339.117 170.375 339.474 170.656 339.719C170.943 339.964 171.341 340.086 171.852 340.086ZM180.297 341L177.047 332.438H178.438L180.281 337.516C180.698 338.703 180.943 339.474 181.016 339.828H181.078C181.135 339.552 181.315 338.982 181.617 338.117C181.924 337.247 182.609 335.354 183.672 332.438H185.062L181.812 341H180.297ZM190.055 341.156C188.789 341.156 187.789 340.771 187.055 340C186.326 339.229 185.961 338.159 185.961 336.789C185.961 335.409 186.299 334.312 186.977 333.5C187.659 332.688 188.573 332.281 189.719 332.281C190.792 332.281 191.641 332.635 192.266 333.344C192.891 334.047 193.203 334.977 193.203 336.133V336.953H187.305C187.331 337.958 187.583 338.721 188.062 339.242C188.547 339.763 189.227 340.023 190.102 340.023C191.023 340.023 191.935 339.831 192.836 339.445V340.602C192.378 340.799 191.943 340.94 191.531 341.023C191.125 341.112 190.633 341.156 190.055 341.156ZM189.703 333.367C189.016 333.367 188.466 333.591 188.055 334.039C187.648 334.487 187.409 335.107 187.336 335.898H191.812C191.812 335.081 191.63 334.456 191.266 334.023C190.901 333.586 190.38 333.367 189.703 333.367ZM201.281 341V335.461C201.281 334.763 201.122 334.242 200.805 333.898C200.487 333.555 199.99 333.383 199.312 333.383C198.417 333.383 197.76 333.625 197.344 334.109C196.927 334.594 196.719 335.393 196.719 336.508V341H195.422V332.438H196.477L196.688 333.609H196.75C197.016 333.188 197.388 332.862 197.867 332.633C198.346 332.398 198.88 332.281 199.469 332.281C200.5 332.281 201.276 332.531 201.797 333.031C202.318 333.526 202.578 334.32 202.578 335.414V341H201.281ZM206.367 329.578L206.055 333.703H205.234L204.914 329.578H206.367ZM211.562 340.086C211.792 340.086 212.013 340.07 212.227 340.039C212.44 340.003 212.609 339.966 212.734 339.93V340.922C212.594 340.99 212.385 341.044 212.109 341.086C211.839 341.133 211.594 341.156 211.375 341.156C209.719 341.156 208.891 340.284 208.891 338.539V333.445H207.664V332.82L208.891 332.281L209.438 330.453H210.188V332.438H212.672V333.445H210.188V338.484C210.188 339 210.31 339.396 210.555 339.672C210.799 339.948 211.135 340.086 211.562 340.086ZM224.469 341V335.461C224.469 334.763 224.31 334.242 223.992 333.898C223.674 333.555 223.177 333.383 222.5 333.383C221.599 333.383 220.94 333.628 220.523 334.117C220.112 334.607 219.906 335.409 219.906 336.523V341H218.609V328.844H219.906V332.523C219.906 332.966 219.885 333.333 219.844 333.625H219.922C220.177 333.214 220.539 332.891 221.008 332.656C221.482 332.417 222.021 332.297 222.625 332.297C223.672 332.297 224.456 332.547 224.977 333.047C225.503 333.542 225.766 334.331 225.766 335.414V341H224.469ZM232.055 341.156C230.789 341.156 229.789 340.771 229.055 340C228.326 339.229 227.961 338.159 227.961 336.789C227.961 335.409 228.299 334.312 228.977 333.5C229.659 332.688 230.573 332.281 231.719 332.281C232.792 332.281 233.641 332.635 234.266 333.344C234.891 334.047 235.203 334.977 235.203 336.133V336.953H229.305C229.331 337.958 229.583 338.721 230.062 339.242C230.547 339.763 231.227 340.023 232.102 340.023C233.023 340.023 233.935 339.831 234.836 339.445V340.602C234.378 340.799 233.943 340.94 233.531 341.023C233.125 341.112 232.633 341.156 232.055 341.156ZM231.703 333.367C231.016 333.367 230.466 333.591 230.055 334.039C229.648 334.487 229.409 335.107 229.336 335.898H233.812C233.812 335.081 233.63 334.456 233.266 334.023C232.901 333.586 232.38 333.367 231.703 333.367ZM242.688 341L242.43 339.781H242.367C241.94 340.318 241.513 340.682 241.086 340.875C240.664 341.062 240.135 341.156 239.5 341.156C238.651 341.156 237.984 340.938 237.5 340.5C237.021 340.062 236.781 339.44 236.781 338.633C236.781 336.904 238.164 335.997 240.93 335.914L242.383 335.867V335.336C242.383 334.664 242.237 334.169 241.945 333.852C241.659 333.529 241.198 333.367 240.562 333.367C239.849 333.367 239.042 333.586 238.141 334.023L237.742 333.031C238.164 332.802 238.625 332.622 239.125 332.492C239.63 332.362 240.135 332.297 240.641 332.297C241.661 332.297 242.417 332.523 242.906 332.977C243.401 333.43 243.648 334.156 243.648 335.156V341H242.688ZM239.758 340.086C240.565 340.086 241.198 339.865 241.656 339.422C242.12 338.979 242.352 338.359 242.352 337.562V336.789L241.055 336.844C240.023 336.88 239.279 337.042 238.82 337.328C238.367 337.609 238.141 338.049 238.141 338.648C238.141 339.117 238.281 339.474 238.562 339.719C238.849 339.964 239.247 340.086 239.758 340.086ZM250.234 332.281C250.615 332.281 250.956 332.312 251.258 332.375L251.078 333.578C250.724 333.5 250.411 333.461 250.141 333.461C249.448 333.461 248.854 333.742 248.359 334.305C247.87 334.867 247.625 335.568 247.625 336.406V341H246.328V332.438H247.398L247.547 334.023H247.609C247.927 333.466 248.31 333.036 248.758 332.734C249.206 332.432 249.698 332.281 250.234 332.281ZM258.688 339.852H258.617C258.018 340.721 257.122 341.156 255.93 341.156C254.81 341.156 253.938 340.773 253.312 340.008C252.693 339.242 252.383 338.154 252.383 336.742C252.383 335.331 252.695 334.234 253.32 333.453C253.945 332.672 254.815 332.281 255.93 332.281C257.091 332.281 257.982 332.703 258.602 333.547H258.703L258.648 332.93L258.617 332.328V328.844H259.914V341H258.859L258.688 339.852ZM256.094 340.07C256.979 340.07 257.62 339.831 258.016 339.352C258.417 338.867 258.617 338.089 258.617 337.016V336.742C258.617 335.529 258.414 334.664 258.008 334.148C257.607 333.628 256.964 333.367 256.078 333.367C255.318 333.367 254.734 333.664 254.328 334.258C253.927 334.846 253.727 335.68 253.727 336.758C253.727 337.852 253.927 338.677 254.328 339.234C254.729 339.792 255.318 340.07 256.094 340.07ZM274.219 336.711C274.219 338.107 273.867 339.198 273.164 339.984C272.461 340.766 271.49 341.156 270.25 341.156C269.484 341.156 268.805 340.977 268.211 340.617C267.617 340.258 267.159 339.742 266.836 339.07C266.513 338.398 266.352 337.612 266.352 336.711C266.352 335.315 266.701 334.229 267.398 333.453C268.096 332.672 269.065 332.281 270.305 332.281C271.503 332.281 272.453 332.68 273.156 333.477C273.865 334.273 274.219 335.352 274.219 336.711ZM267.695 336.711C267.695 337.805 267.914 338.638 268.352 339.211C268.789 339.784 269.432 340.07 270.281 340.07C271.13 340.07 271.773 339.786 272.211 339.219C272.654 338.646 272.875 337.81 272.875 336.711C272.875 335.622 272.654 334.797 272.211 334.234C271.773 333.667 271.125 333.383 270.266 333.383C269.417 333.383 268.776 333.661 268.344 334.219C267.911 334.776 267.695 335.607 267.695 336.711ZM280.359 333.445H278.18V341H276.883V333.445H275.352V332.859L276.883 332.391V331.914C276.883 329.81 277.802 328.758 279.641 328.758C280.094 328.758 280.625 328.849 281.234 329.031L280.898 330.07C280.398 329.909 279.971 329.828 279.617 329.828C279.128 329.828 278.766 329.992 278.531 330.32C278.297 330.643 278.18 331.164 278.18 331.883V332.438H280.359V333.445ZM288.844 340.086C289.073 340.086 289.294 340.07 289.508 340.039C289.721 340.003 289.891 339.966 290.016 339.93V340.922C289.875 340.99 289.667 341.044 289.391 341.086C289.12 341.133 288.875 341.156 288.656 341.156C287 341.156 286.172 340.284 286.172 338.539V333.445H284.945V332.82L286.172 332.281L286.719 330.453H287.469V332.438H289.953V333.445H287.469V338.484C287.469 339 287.591 339.396 287.836 339.672C288.081 339.948 288.417 340.086 288.844 340.086ZM297.594 341V335.461C297.594 334.763 297.435 334.242 297.117 333.898C296.799 333.555 296.302 333.383 295.625 333.383C294.724 333.383 294.065 333.628 293.648 334.117C293.237 334.607 293.031 335.409 293.031 336.523V341H291.734V328.844H293.031V332.523C293.031 332.966 293.01 333.333 292.969 333.625H293.047C293.302 333.214 293.664 332.891 294.133 332.656C294.607 332.417 295.146 332.297 295.75 332.297C296.797 332.297 297.581 332.547 298.102 333.047C298.628 333.542 298.891 334.331 298.891 335.414V341H297.594ZM305.18 341.156C303.914 341.156 302.914 340.771 302.18 340C301.451 339.229 301.086 338.159 301.086 336.789C301.086 335.409 301.424 334.312 302.102 333.5C302.784 332.688 303.698 332.281 304.844 332.281C305.917 332.281 306.766 332.635 307.391 333.344C308.016 334.047 308.328 334.977 308.328 336.133V336.953H302.43C302.456 337.958 302.708 338.721 303.188 339.242C303.672 339.763 304.352 340.023 305.227 340.023C306.148 340.023 307.06 339.831 307.961 339.445V340.602C307.503 340.799 307.068 340.94 306.656 341.023C306.25 341.112 305.758 341.156 305.18 341.156ZM304.828 333.367C304.141 333.367 303.591 333.591 303.18 334.039C302.773 334.487 302.534 335.107 302.461 335.898H306.938C306.938 335.081 306.755 334.456 306.391 334.023C306.026 333.586 305.505 333.367 304.828 333.367ZM321.461 341V335.43C321.461 334.747 321.315 334.237 321.023 333.898C320.732 333.555 320.279 333.383 319.664 333.383C318.857 333.383 318.26 333.615 317.875 334.078C317.49 334.542 317.297 335.255 317.297 336.219V341H316V335.43C316 334.747 315.854 334.237 315.562 333.898C315.271 333.555 314.815 333.383 314.195 333.383C313.383 333.383 312.786 333.628 312.406 334.117C312.031 334.602 311.844 335.398 311.844 336.508V341H310.547V332.438H311.602L311.812 333.609H311.875C312.12 333.193 312.464 332.867 312.906 332.633C313.354 332.398 313.854 332.281 314.406 332.281C315.745 332.281 316.62 332.766 317.031 333.734H317.094C317.349 333.286 317.719 332.932 318.203 332.672C318.688 332.411 319.24 332.281 319.859 332.281C320.828 332.281 321.552 332.531 322.031 333.031C322.516 333.526 322.758 334.32 322.758 335.414V341H321.461ZM333.578 332.297C334.703 332.297 335.576 332.682 336.195 333.453C336.82 334.219 337.133 335.305 337.133 336.711C337.133 338.117 336.818 339.211 336.188 339.992C335.562 340.768 334.693 341.156 333.578 341.156C333.021 341.156 332.51 341.055 332.047 340.852C331.589 340.643 331.203 340.326 330.891 339.898H330.797L330.523 341H329.594V328.844H330.891V331.797C330.891 332.458 330.87 333.052 330.828 333.578H330.891C331.495 332.724 332.391 332.297 333.578 332.297ZM333.391 333.383C332.505 333.383 331.867 333.638 331.477 334.148C331.086 334.654 330.891 335.508 330.891 336.711C330.891 337.914 331.091 338.776 331.492 339.297C331.893 339.812 332.536 340.07 333.422 340.07C334.219 340.07 334.812 339.781 335.203 339.203C335.594 338.62 335.789 337.784 335.789 336.695C335.789 335.581 335.594 334.75 335.203 334.203C334.812 333.656 334.208 333.383 333.391 333.383ZM344.672 341L344.414 339.781H344.352C343.924 340.318 343.497 340.682 343.07 340.875C342.648 341.062 342.12 341.156 341.484 341.156C340.635 341.156 339.969 340.938 339.484 340.5C339.005 340.062 338.766 339.44 338.766 338.633C338.766 336.904 340.148 335.997 342.914 335.914L344.367 335.867V335.336C344.367 334.664 344.221 334.169 343.93 333.852C343.643 333.529 343.182 333.367 342.547 333.367C341.833 333.367 341.026 333.586 340.125 334.023L339.727 333.031C340.148 332.802 340.609 332.622 341.109 332.492C341.615 332.362 342.12 332.297 342.625 332.297C343.646 332.297 344.401 332.523 344.891 332.977C345.385 333.43 345.633 334.156 345.633 335.156V341H344.672ZM341.742 340.086C342.549 340.086 343.182 339.865 343.641 339.422C344.104 338.979 344.336 338.359 344.336 337.562V336.789L343.039 336.844C342.008 336.88 341.263 337.042 340.805 337.328C340.352 337.609 340.125 338.049 340.125 338.648C340.125 339.117 340.266 339.474 340.547 339.719C340.833 339.964 341.232 340.086 341.742 340.086ZM354.172 341V335.461C354.172 334.763 354.013 334.242 353.695 333.898C353.378 333.555 352.88 333.383 352.203 333.383C351.307 333.383 350.651 333.625 350.234 334.109C349.818 334.594 349.609 335.393 349.609 336.508V341H348.312V332.438H349.367L349.578 333.609H349.641C349.906 333.188 350.279 332.862 350.758 332.633C351.237 332.398 351.771 332.281 352.359 332.281C353.391 332.281 354.167 332.531 354.688 333.031C355.208 333.526 355.469 334.32 355.469 335.414V341H354.172ZM364 341V335.461C364 334.763 363.841 334.242 363.523 333.898C363.206 333.555 362.708 333.383 362.031 333.383C361.13 333.383 360.471 333.628 360.055 334.117C359.643 334.607 359.438 335.409 359.438 336.523V341H358.141V328.844H359.438V332.523C359.438 332.966 359.417 333.333 359.375 333.625H359.453C359.708 333.214 360.07 332.891 360.539 332.656C361.013 332.417 361.552 332.297 362.156 332.297C363.203 332.297 363.987 332.547 364.508 333.047C365.034 333.542 365.297 334.331 365.297 335.414V341H364ZM383.039 341V335.43C383.039 334.747 382.893 334.237 382.602 333.898C382.31 333.555 381.857 333.383 381.242 333.383C380.435 333.383 379.839 333.615 379.453 334.078C379.068 334.542 378.875 335.255 378.875 336.219V341H377.578V335.43C377.578 334.747 377.432 334.237 377.141 333.898C376.849 333.555 376.393 333.383 375.773 333.383C374.961 333.383 374.365 333.628 373.984 334.117C373.609 334.602 373.422 335.398 373.422 336.508V341H372.125V332.438H373.18L373.391 333.609H373.453C373.698 333.193 374.042 332.867 374.484 332.633C374.932 332.398 375.432 332.281 375.984 332.281C377.323 332.281 378.198 332.766 378.609 333.734H378.672C378.927 333.286 379.297 332.932 379.781 332.672C380.266 332.411 380.818 332.281 381.438 332.281C382.406 332.281 383.13 332.531 383.609 333.031C384.094 333.526 384.336 334.32 384.336 335.414V341H383.039ZM388.312 341H387.016V332.438H388.312V341ZM386.906 330.117C386.906 329.82 386.979 329.604 387.125 329.469C387.271 329.328 387.453 329.258 387.672 329.258C387.88 329.258 388.06 329.328 388.211 329.469C388.362 329.609 388.438 329.826 388.438 330.117C388.438 330.409 388.362 330.628 388.211 330.773C388.06 330.914 387.88 330.984 387.672 330.984C387.453 330.984 387.271 330.914 387.125 330.773C386.979 330.628 386.906 330.409 386.906 330.117ZM400.742 338.664C400.742 339.461 400.445 340.076 399.852 340.508C399.258 340.94 398.424 341.156 397.352 341.156C396.216 341.156 395.331 340.977 394.695 340.617V339.414C395.107 339.622 395.547 339.786 396.016 339.906C396.49 340.026 396.945 340.086 397.383 340.086C398.06 340.086 398.581 339.979 398.945 339.766C399.31 339.547 399.492 339.216 399.492 338.773C399.492 338.44 399.346 338.156 399.055 337.922C398.768 337.682 398.206 337.401 397.367 337.078C396.57 336.781 396.003 336.523 395.664 336.305C395.331 336.081 395.081 335.828 394.914 335.547C394.753 335.266 394.672 334.93 394.672 334.539C394.672 333.841 394.956 333.292 395.523 332.891C396.091 332.484 396.87 332.281 397.859 332.281C398.781 332.281 399.682 332.469 400.562 332.844L400.102 333.898C399.242 333.544 398.464 333.367 397.766 333.367C397.151 333.367 396.688 333.464 396.375 333.656C396.062 333.849 395.906 334.115 395.906 334.453C395.906 334.682 395.964 334.878 396.078 335.039C396.198 335.201 396.388 335.354 396.648 335.5C396.909 335.646 397.409 335.857 398.148 336.133C399.164 336.503 399.849 336.875 400.203 337.25C400.562 337.625 400.742 338.096 400.742 338.664ZM401.5 332.438H402.891L404.766 337.32C405.177 338.435 405.432 339.24 405.531 339.734H405.594C405.661 339.469 405.802 339.016 406.016 338.375C406.234 337.729 406.943 335.75 408.141 332.438H409.531L405.852 342.188C405.487 343.151 405.06 343.833 404.57 344.234C404.086 344.641 403.49 344.844 402.781 344.844C402.385 344.844 401.995 344.799 401.609 344.711V343.672C401.896 343.734 402.216 343.766 402.57 343.766C403.461 343.766 404.096 343.266 404.477 342.266L404.953 341.047L401.5 332.438ZM416.781 341V335.461C416.781 334.763 416.622 334.242 416.305 333.898C415.987 333.555 415.49 333.383 414.812 333.383C413.917 333.383 413.26 333.625 412.844 334.109C412.427 334.594 412.219 335.393 412.219 336.508V341H410.922V332.438H411.977L412.188 333.609H412.25C412.516 333.188 412.888 332.862 413.367 332.633C413.846 332.398 414.38 332.281 414.969 332.281C416 332.281 416.776 332.531 417.297 333.031C417.818 333.526 418.078 334.32 418.078 335.414V341H416.781ZM423.516 340.086C423.745 340.086 423.966 340.07 424.18 340.039C424.393 340.003 424.562 339.966 424.688 339.93V340.922C424.547 340.99 424.339 341.044 424.062 341.086C423.792 341.133 423.547 341.156 423.328 341.156C421.672 341.156 420.844 340.284 420.844 338.539V333.445H419.617V332.82L420.844 332.281L421.391 330.453H422.141V332.438H424.625V333.445H422.141V338.484C422.141 339 422.263 339.396 422.508 339.672C422.753 339.948 423.089 340.086 423.516 340.086ZM432.266 341V335.461C432.266 334.763 432.107 334.242 431.789 333.898C431.471 333.555 430.974 333.383 430.297 333.383C429.396 333.383 428.737 333.628 428.32 334.117C427.909 334.607 427.703 335.409 427.703 336.523V341H426.406V328.844H427.703V332.523C427.703 332.966 427.682 333.333 427.641 333.625H427.719C427.974 333.214 428.336 332.891 428.805 332.656C429.279 332.417 429.818 332.297 430.422 332.297C431.469 332.297 432.253 332.547 432.773 333.047C433.299 333.542 433.562 334.331 433.562 335.414V341H432.266ZM445.656 341L445.398 339.781H445.336C444.909 340.318 444.482 340.682 444.055 340.875C443.633 341.062 443.104 341.156 442.469 341.156C441.62 341.156 440.953 340.938 440.469 340.5C439.99 340.062 439.75 339.44 439.75 338.633C439.75 336.904 441.133 335.997 443.898 335.914L445.352 335.867V335.336C445.352 334.664 445.206 334.169 444.914 333.852C444.628 333.529 444.167 333.367 443.531 333.367C442.818 333.367 442.01 333.586 441.109 334.023L440.711 333.031C441.133 332.802 441.594 332.622 442.094 332.492C442.599 332.362 443.104 332.297 443.609 332.297C444.63 332.297 445.385 332.523 445.875 332.977C446.37 333.43 446.617 334.156 446.617 335.156V341H445.656ZM442.727 340.086C443.534 340.086 444.167 339.865 444.625 339.422C445.089 338.979 445.32 338.359 445.32 337.562V336.789L444.023 336.844C442.992 336.88 442.247 337.042 441.789 337.328C441.336 337.609 441.109 338.049 441.109 338.648C441.109 339.117 441.25 339.474 441.531 339.719C441.818 339.964 442.216 340.086 442.727 340.086ZM452.719 341.156C451.479 341.156 450.518 340.776 449.836 340.016C449.159 339.25 448.82 338.169 448.82 336.773C448.82 335.341 449.164 334.234 449.852 333.453C450.544 332.672 451.529 332.281 452.805 332.281C453.216 332.281 453.628 332.326 454.039 332.414C454.451 332.503 454.773 332.607 455.008 332.727L454.609 333.828C454.323 333.714 454.01 333.62 453.672 333.547C453.333 333.469 453.034 333.43 452.773 333.43C451.034 333.43 450.164 334.539 450.164 336.758C450.164 337.81 450.375 338.617 450.797 339.18C451.224 339.742 451.854 340.023 452.688 340.023C453.401 340.023 454.133 339.87 454.883 339.562V340.711C454.31 341.008 453.589 341.156 452.719 341.156ZM459.688 340.086C459.917 340.086 460.138 340.07 460.352 340.039C460.565 340.003 460.734 339.966 460.859 339.93V340.922C460.719 340.99 460.51 341.044 460.234 341.086C459.964 341.133 459.719 341.156 459.5 341.156C457.844 341.156 457.016 340.284 457.016 338.539V333.445H455.789V332.82L457.016 332.281L457.562 330.453H458.312V332.438H460.797V333.445H458.312V338.484C458.312 339 458.435 339.396 458.68 339.672C458.924 339.948 459.26 340.086 459.688 340.086ZM463.797 332.438V337.992C463.797 338.69 463.956 339.211 464.273 339.555C464.591 339.898 465.089 340.07 465.766 340.07C466.661 340.07 467.315 339.826 467.727 339.336C468.143 338.846 468.352 338.047 468.352 336.938V332.438H469.648V341H468.578L468.391 339.852H468.32C468.055 340.273 467.685 340.596 467.211 340.82C466.742 341.044 466.206 341.156 465.602 341.156C464.56 341.156 463.779 340.909 463.258 340.414C462.742 339.919 462.484 339.128 462.484 338.039V332.438H463.797ZM477.672 341L477.414 339.781H477.352C476.924 340.318 476.497 340.682 476.07 340.875C475.648 341.062 475.12 341.156 474.484 341.156C473.635 341.156 472.969 340.938 472.484 340.5C472.005 340.062 471.766 339.44 471.766 338.633C471.766 336.904 473.148 335.997 475.914 335.914L477.367 335.867V335.336C477.367 334.664 477.221 334.169 476.93 333.852C476.643 333.529 476.182 333.367 475.547 333.367C474.833 333.367 474.026 333.586 473.125 334.023L472.727 333.031C473.148 332.802 473.609 332.622 474.109 332.492C474.615 332.362 475.12 332.297 475.625 332.297C476.646 332.297 477.401 332.523 477.891 332.977C478.385 333.43 478.633 334.156 478.633 335.156V341H477.672ZM474.742 340.086C475.549 340.086 476.182 339.865 476.641 339.422C477.104 338.979 477.336 338.359 477.336 337.562V336.789L476.039 336.844C475.008 336.88 474.263 337.042 473.805 337.328C473.352 337.609 473.125 338.049 473.125 338.648C473.125 339.117 473.266 339.474 473.547 339.719C473.833 339.964 474.232 340.086 474.742 340.086ZM482.609 341H481.312V328.844H482.609V341ZM486.656 341H485.359V328.844H486.656V341ZM488.047 332.438H489.438L491.312 337.32C491.724 338.435 491.979 339.24 492.078 339.734H492.141C492.208 339.469 492.349 339.016 492.562 338.375C492.781 337.729 493.49 335.75 494.688 332.438H496.078L492.398 342.188C492.034 343.151 491.607 343.833 491.117 344.234C490.633 344.641 490.036 344.844 489.328 344.844C488.932 344.844 488.542 344.799 488.156 344.711V343.672C488.443 343.734 488.763 343.766 489.117 343.766C490.008 343.766 490.643 343.266 491.023 342.266L491.5 341.047L488.047 332.438ZM506.891 341L506.633 339.781H506.57C506.143 340.318 505.716 340.682 505.289 340.875C504.867 341.062 504.339 341.156 503.703 341.156C502.854 341.156 502.188 340.938 501.703 340.5C501.224 340.062 500.984 339.44 500.984 338.633C500.984 336.904 502.367 335.997 505.133 335.914L506.586 335.867V335.336C506.586 334.664 506.44 334.169 506.148 333.852C505.862 333.529 505.401 333.367 504.766 333.367C504.052 333.367 503.245 333.586 502.344 334.023L501.945 333.031C502.367 332.802 502.828 332.622 503.328 332.492C503.833 332.362 504.339 332.297 504.844 332.297C505.865 332.297 506.62 332.523 507.109 332.977C507.604 333.43 507.852 334.156 507.852 335.156V341H506.891ZM503.961 340.086C504.768 340.086 505.401 339.865 505.859 339.422C506.323 338.979 506.555 338.359 506.555 337.562V336.789L505.258 336.844C504.227 336.88 503.482 337.042 503.023 337.328C502.57 337.609 502.344 338.049 502.344 338.648C502.344 339.117 502.484 339.474 502.766 339.719C503.052 339.964 503.451 340.086 503.961 340.086ZM519.812 333.445H517.633V341H516.336V333.445H514.805V332.859L516.336 332.391V331.914C516.336 329.81 517.255 328.758 519.094 328.758C519.547 328.758 520.078 328.849 520.688 329.031L520.352 330.07C519.852 329.909 519.424 329.828 519.07 329.828C518.581 329.828 518.219 329.992 517.984 330.32C517.75 330.643 517.633 331.164 517.633 331.883V332.438H519.812V333.445ZM514.391 333.445H512.211V341H510.914V333.445H509.383V332.859L510.914 332.391V331.914C510.914 329.81 511.833 328.758 513.672 328.758C514.125 328.758 514.656 328.849 515.266 329.031L514.93 330.07C514.43 329.909 514.003 329.828 513.648 329.828C513.159 329.828 512.797 329.992 512.562 330.32C512.328 330.643 512.211 331.164 512.211 331.883V332.438H514.391V333.445ZM528.781 336.711C528.781 338.107 528.43 339.198 527.727 339.984C527.023 340.766 526.052 341.156 524.812 341.156C524.047 341.156 523.367 340.977 522.773 340.617C522.18 340.258 521.721 339.742 521.398 339.07C521.076 338.398 520.914 337.612 520.914 336.711C520.914 335.315 521.263 334.229 521.961 333.453C522.659 332.672 523.628 332.281 524.867 332.281C526.065 332.281 527.016 332.68 527.719 333.477C528.427 334.273 528.781 335.352 528.781 336.711ZM522.258 336.711C522.258 337.805 522.477 338.638 522.914 339.211C523.352 339.784 523.995 340.07 524.844 340.07C525.693 340.07 526.336 339.786 526.773 339.219C527.216 338.646 527.438 337.81 527.438 336.711C527.438 335.622 527.216 334.797 526.773 334.234C526.336 333.667 525.688 333.383 524.828 333.383C523.979 333.383 523.339 333.661 522.906 334.219C522.474 334.776 522.258 335.607 522.258 336.711ZM538.07 332.438V333.258L536.484 333.445C536.63 333.628 536.76 333.867 536.875 334.164C536.99 334.456 537.047 334.786 537.047 335.156C537.047 335.995 536.76 336.664 536.188 337.164C535.615 337.664 534.828 337.914 533.828 337.914C533.573 337.914 533.333 337.893 533.109 337.852C532.557 338.143 532.281 338.51 532.281 338.953C532.281 339.188 532.378 339.362 532.57 339.477C532.763 339.586 533.094 339.641 533.562 339.641H535.078C536.005 339.641 536.716 339.836 537.211 340.227C537.711 340.617 537.961 341.185 537.961 341.93C537.961 342.878 537.581 343.599 536.82 344.094C536.06 344.594 534.951 344.844 533.492 344.844C532.372 344.844 531.508 344.635 530.898 344.219C530.294 343.802 529.992 343.214 529.992 342.453C529.992 341.932 530.159 341.482 530.492 341.102C530.826 340.721 531.294 340.464 531.898 340.328C531.68 340.229 531.495 340.076 531.344 339.867C531.198 339.659 531.125 339.417 531.125 339.141C531.125 338.828 531.208 338.555 531.375 338.32C531.542 338.086 531.805 337.859 532.164 337.641C531.721 337.458 531.359 337.148 531.078 336.711C530.802 336.273 530.664 335.773 530.664 335.211C530.664 334.273 530.945 333.552 531.508 333.047C532.07 332.536 532.867 332.281 533.898 332.281C534.346 332.281 534.75 332.333 535.109 332.438H538.07ZM531.242 342.438C531.242 342.901 531.438 343.253 531.828 343.492C532.219 343.732 532.779 343.852 533.508 343.852C534.596 343.852 535.401 343.688 535.922 343.359C536.448 343.036 536.711 342.596 536.711 342.039C536.711 341.576 536.568 341.253 536.281 341.07C535.995 340.893 535.456 340.805 534.664 340.805H533.109C532.521 340.805 532.062 340.945 531.734 341.227C531.406 341.508 531.242 341.911 531.242 342.438ZM531.945 335.18C531.945 335.779 532.115 336.232 532.453 336.539C532.792 336.846 533.263 337 533.867 337C535.133 337 535.766 336.385 535.766 335.156C535.766 333.87 535.125 333.227 533.844 333.227C533.234 333.227 532.766 333.391 532.438 333.719C532.109 334.047 531.945 334.534 531.945 335.18ZM545.094 341L544.836 339.781H544.773C544.346 340.318 543.919 340.682 543.492 340.875C543.07 341.062 542.542 341.156 541.906 341.156C541.057 341.156 540.391 340.938 539.906 340.5C539.427 340.062 539.188 339.44 539.188 338.633C539.188 336.904 540.57 335.997 543.336 335.914L544.789 335.867V335.336C544.789 334.664 544.643 334.169 544.352 333.852C544.065 333.529 543.604 333.367 542.969 333.367C542.255 333.367 541.448 333.586 540.547 334.023L540.148 333.031C540.57 332.802 541.031 332.622 541.531 332.492C542.036 332.362 542.542 332.297 543.047 332.297C544.068 332.297 544.823 332.523 545.312 332.977C545.807 333.43 546.055 334.156 546.055 335.156V341H545.094ZM542.164 340.086C542.971 340.086 543.604 339.865 544.062 339.422C544.526 338.979 544.758 338.359 544.758 337.562V336.789L543.461 336.844C542.43 336.88 541.685 337.042 541.227 337.328C540.773 337.609 540.547 338.049 540.547 338.648C540.547 339.117 540.688 339.474 540.969 339.719C541.255 339.964 541.654 340.086 542.164 340.086ZM551.5 340.086C551.729 340.086 551.951 340.07 552.164 340.039C552.378 340.003 552.547 339.966 552.672 339.93V340.922C552.531 340.99 552.323 341.044 552.047 341.086C551.776 341.133 551.531 341.156 551.312 341.156C549.656 341.156 548.828 340.284 548.828 338.539V333.445H547.602V332.82L548.828 332.281L549.375 330.453H550.125V332.438H552.609V333.445H550.125V338.484C550.125 339 550.247 339.396 550.492 339.672C550.737 339.948 551.073 340.086 551.5 340.086ZM561.781 336.711C561.781 338.107 561.43 339.198 560.727 339.984C560.023 340.766 559.052 341.156 557.812 341.156C557.047 341.156 556.367 340.977 555.773 340.617C555.18 340.258 554.721 339.742 554.398 339.07C554.076 338.398 553.914 337.612 553.914 336.711C553.914 335.315 554.263 334.229 554.961 333.453C555.659 332.672 556.628 332.281 557.867 332.281C559.065 332.281 560.016 332.68 560.719 333.477C561.427 334.273 561.781 335.352 561.781 336.711ZM555.258 336.711C555.258 337.805 555.477 338.638 555.914 339.211C556.352 339.784 556.995 340.07 557.844 340.07C558.693 340.07 559.336 339.786 559.773 339.219C560.216 338.646 560.438 337.81 560.438 336.711C560.438 335.622 560.216 334.797 559.773 334.234C559.336 333.667 558.688 333.383 557.828 333.383C556.979 333.383 556.339 333.661 555.906 334.219C555.474 334.776 555.258 335.607 555.258 336.711ZM563.875 340.172C563.875 339.823 563.953 339.56 564.109 339.383C564.271 339.201 564.5 339.109 564.797 339.109C565.099 339.109 565.333 339.201 565.5 339.383C565.672 339.56 565.758 339.823 565.758 340.172C565.758 340.51 565.672 340.771 565.5 340.953C565.328 341.135 565.094 341.227 564.797 341.227C564.531 341.227 564.31 341.146 564.133 340.984C563.961 340.818 563.875 340.547 563.875 340.172ZM8.75 368L7.32812 364.367H2.75L1.34375 368H0L4.51562 356.531H5.63281L10.125 368H8.75ZM6.91406 363.172L5.58594 359.633C5.41406 359.185 5.23698 358.635 5.05469 357.984C4.9401 358.484 4.77604 359.034 4.5625 359.633L3.21875 363.172H6.91406ZM15.1172 368.156C13.8516 368.156 12.8516 367.771 12.1172 367C11.388 366.229 11.0234 365.159 11.0234 363.789C11.0234 362.409 11.362 361.312 12.0391 360.5C12.7214 359.688 13.6354 359.281 14.7812 359.281C15.8542 359.281 16.7031 359.635 17.3281 360.344C17.9531 361.047 18.2656 361.977 18.2656 363.133V363.953H12.3672C12.3932 364.958 12.6458 365.721 13.125 366.242C13.6094 366.763 14.2891 367.023 15.1641 367.023C16.0859 367.023 16.9974 366.831 17.8984 366.445V367.602C17.4401 367.799 17.0052 367.94 16.5938 368.023C16.1875 368.112 15.6953 368.156 15.1172 368.156ZM14.7656 360.367C14.0781 360.367 13.5286 360.591 13.1172 361.039C12.7109 361.487 12.4714 362.107 12.3984 362.898H16.875C16.875 362.081 16.6927 361.456 16.3281 361.023C15.9635 360.586 15.4427 360.367 14.7656 360.367ZM26.0078 365.664C26.0078 366.461 25.7109 367.076 25.1172 367.508C24.5234 367.94 23.6901 368.156 22.6172 368.156C21.4818 368.156 20.5964 367.977 19.9609 367.617V366.414C20.3724 366.622 20.8125 366.786 21.2812 366.906C21.7552 367.026 22.2109 367.086 22.6484 367.086C23.3255 367.086 23.8464 366.979 24.2109 366.766C24.5755 366.547 24.7578 366.216 24.7578 365.773C24.7578 365.44 24.612 365.156 24.3203 364.922C24.0339 364.682 23.4714 364.401 22.6328 364.078C21.8359 363.781 21.2682 363.523 20.9297 363.305C20.5964 363.081 20.3464 362.828 20.1797 362.547C20.0182 362.266 19.9375 361.93 19.9375 361.539C19.9375 360.841 20.2214 360.292 20.7891 359.891C21.3568 359.484 22.1354 359.281 23.125 359.281C24.0469 359.281 24.9479 359.469 25.8281 359.844L25.3672 360.898C24.5078 360.544 23.7292 360.367 23.0312 360.367C22.4167 360.367 21.9531 360.464 21.6406 360.656C21.3281 360.849 21.1719 361.115 21.1719 361.453C21.1719 361.682 21.2292 361.878 21.3438 362.039C21.4635 362.201 21.6536 362.354 21.9141 362.5C22.1745 362.646 22.6745 362.857 23.4141 363.133C24.4297 363.503 25.1146 363.875 25.4688 364.25C25.8281 364.625 26.0078 365.096 26.0078 365.664ZM30.8906 367.086C31.1198 367.086 31.3411 367.07 31.5547 367.039C31.7682 367.003 31.9375 366.966 32.0625 366.93V367.922C31.9219 367.99 31.7135 368.044 31.4375 368.086C31.1667 368.133 30.9219 368.156 30.7031 368.156C29.0469 368.156 28.2188 367.284 28.2188 365.539V360.445H26.9922V359.82L28.2188 359.281L28.7656 357.453H29.5156V359.438H32V360.445H29.5156V365.484C29.5156 366 29.638 366.396 29.8828 366.672C30.1276 366.948 30.4635 367.086 30.8906 367.086ZM39.6406 368V362.461C39.6406 361.763 39.4818 361.242 39.1641 360.898C38.8464 360.555 38.349 360.383 37.6719 360.383C36.7708 360.383 36.112 360.628 35.6953 361.117C35.2839 361.607 35.0781 362.409 35.0781 363.523V368H33.7812V355.844H35.0781V359.523C35.0781 359.966 35.0573 360.333 35.0156 360.625H35.0938C35.349 360.214 35.7109 359.891 36.1797 359.656C36.6536 359.417 37.1927 359.297 37.7969 359.297C38.8438 359.297 39.6276 359.547 40.1484 360.047C40.6745 360.542 40.9375 361.331 40.9375 362.414V368H39.6406ZM47.2266 368.156C45.9609 368.156 44.9609 367.771 44.2266 367C43.4974 366.229 43.1328 365.159 43.1328 363.789C43.1328 362.409 43.4714 361.312 44.1484 360.5C44.8307 359.688 45.7448 359.281 46.8906 359.281C47.9635 359.281 48.8125 359.635 49.4375 360.344C50.0625 361.047 50.375 361.977 50.375 363.133V363.953H44.4766C44.5026 364.958 44.7552 365.721 45.2344 366.242C45.7188 366.763 46.3984 367.023 47.2734 367.023C48.1953 367.023 49.1068 366.831 50.0078 366.445V367.602C49.5495 367.799 49.1146 367.94 48.7031 368.023C48.2969 368.112 47.8047 368.156 47.2266 368.156ZM46.875 360.367C46.1875 360.367 45.638 360.591 45.2266 361.039C44.8203 361.487 44.5807 362.107 44.5078 362.898H48.9844C48.9844 362.081 48.8021 361.456 48.4375 361.023C48.0729 360.586 47.5521 360.367 46.875 360.367ZM55.3594 367.086C55.5885 367.086 55.8099 367.07 56.0234 367.039C56.237 367.003 56.4062 366.966 56.5312 366.93V367.922C56.3906 367.99 56.1823 368.044 55.9062 368.086C55.6354 368.133 55.3906 368.156 55.1719 368.156C53.5156 368.156 52.6875 367.284 52.6875 365.539V360.445H51.4609V359.82L52.6875 359.281L53.2344 357.453H53.9844V359.438H56.4688V360.445H53.9844V365.484C53.9844 366 54.1068 366.396 54.3516 366.672C54.5964 366.948 54.9323 367.086 55.3594 367.086ZM59.5469 368H58.25V359.438H59.5469V368ZM58.1406 357.117C58.1406 356.82 58.2135 356.604 58.3594 356.469C58.5052 356.328 58.6875 356.258 58.9062 356.258C59.1146 356.258 59.2943 356.328 59.4453 356.469C59.5964 356.609 59.6719 356.826 59.6719 357.117C59.6719 357.409 59.5964 357.628 59.4453 357.773C59.2943 357.914 59.1146 357.984 58.9062 357.984C58.6875 357.984 58.5052 357.914 58.3594 357.773C58.2135 357.628 58.1406 357.409 58.1406 357.117ZM65.7188 368.156C64.4792 368.156 63.5182 367.776 62.8359 367.016C62.1589 366.25 61.8203 365.169 61.8203 363.773C61.8203 362.341 62.1641 361.234 62.8516 360.453C63.5443 359.672 64.5286 359.281 65.8047 359.281C66.2161 359.281 66.6276 359.326 67.0391 359.414C67.4505 359.503 67.7734 359.607 68.0078 359.727L67.6094 360.828C67.3229 360.714 67.0104 360.62 66.6719 360.547C66.3333 360.469 66.0339 360.43 65.7734 360.43C64.0339 360.43 63.1641 361.539 63.1641 363.758C63.1641 364.81 63.375 365.617 63.7969 366.18C64.224 366.742 64.8542 367.023 65.6875 367.023C66.401 367.023 67.1328 366.87 67.8828 366.562V367.711C67.3099 368.008 66.5885 368.156 65.7188 368.156ZM75.375 368H74.0781V355.844H75.375V368ZM76.7656 359.438H78.1562L80.0312 364.32C80.4427 365.435 80.6979 366.24 80.7969 366.734H80.8594C80.9271 366.469 81.0677 366.016 81.2812 365.375C81.5 364.729 82.2083 362.75 83.4062 359.438H84.7969L81.1172 369.188C80.7526 370.151 80.3255 370.833 79.8359 371.234C79.3516 371.641 78.7552 371.844 78.0469 371.844C77.651 371.844 77.2604 371.799 76.875 371.711V370.672C77.1615 370.734 77.4818 370.766 77.8359 370.766C78.7266 370.766 79.362 370.266 79.7422 369.266L80.2188 368.047L76.7656 359.438ZM90.0469 360.445H87.8672V368H86.5703V360.445H85.0391V359.859L86.5703 359.391V358.914C86.5703 356.81 87.4896 355.758 89.3281 355.758C89.7812 355.758 90.3125 355.849 90.9219 356.031L90.5859 357.07C90.0859 356.909 89.6589 356.828 89.3047 356.828C88.8151 356.828 88.4531 356.992 88.2188 357.32C87.9844 357.643 87.8672 358.164 87.8672 358.883V359.438H90.0469V360.445ZM94.375 367.086C94.6042 367.086 94.8255 367.07 95.0391 367.039C95.2526 367.003 95.4219 366.966 95.5469 366.93V367.922C95.4062 367.99 95.1979 368.044 94.9219 368.086C94.651 368.133 94.4062 368.156 94.1875 368.156C92.5312 368.156 91.7031 367.284 91.7031 365.539V360.445H90.4766V359.82L91.7031 359.281L92.25 357.453H93V359.438H95.4844V360.445H93V365.484C93 366 93.1224 366.396 93.3672 366.672C93.612 366.948 93.9479 367.086 94.375 367.086ZM105.039 368.156C103.773 368.156 102.773 367.771 102.039 367C101.31 366.229 100.945 365.159 100.945 363.789C100.945 362.409 101.284 361.312 101.961 360.5C102.643 359.688 103.557 359.281 104.703 359.281C105.776 359.281 106.625 359.635 107.25 360.344C107.875 361.047 108.188 361.977 108.188 363.133V363.953H102.289C102.315 364.958 102.568 365.721 103.047 366.242C103.531 366.763 104.211 367.023 105.086 367.023C106.008 367.023 106.919 366.831 107.82 366.445V367.602C107.362 367.799 106.927 367.94 106.516 368.023C106.109 368.112 105.617 368.156 105.039 368.156ZM104.688 360.367C104 360.367 103.451 360.591 103.039 361.039C102.633 361.487 102.393 362.107 102.32 362.898H106.797C106.797 362.081 106.615 361.456 106.25 361.023C105.885 360.586 105.365 360.367 104.688 360.367ZM113.172 367.086C113.401 367.086 113.622 367.07 113.836 367.039C114.049 367.003 114.219 366.966 114.344 366.93V367.922C114.203 367.99 113.995 368.044 113.719 368.086C113.448 368.133 113.203 368.156 112.984 368.156C111.328 368.156 110.5 367.284 110.5 365.539V360.445H109.273V359.82L110.5 359.281L111.047 357.453H111.797V359.438H114.281V360.445H111.797V365.484C111.797 366 111.919 366.396 112.164 366.672C112.409 366.948 112.745 367.086 113.172 367.086ZM121.922 368V362.461C121.922 361.763 121.763 361.242 121.445 360.898C121.128 360.555 120.63 360.383 119.953 360.383C119.052 360.383 118.393 360.628 117.977 361.117C117.565 361.607 117.359 362.409 117.359 363.523V368H116.062V355.844H117.359V359.523C117.359 359.966 117.339 360.333 117.297 360.625H117.375C117.63 360.214 117.992 359.891 118.461 359.656C118.935 359.417 119.474 359.297 120.078 359.297C121.125 359.297 121.909 359.547 122.43 360.047C122.956 360.542 123.219 361.331 123.219 362.414V368H121.922ZM127.188 368H125.891V359.438H127.188V368ZM125.781 357.117C125.781 356.82 125.854 356.604 126 356.469C126.146 356.328 126.328 356.258 126.547 356.258C126.755 356.258 126.935 356.328 127.086 356.469C127.237 356.609 127.312 356.826 127.312 357.117C127.312 357.409 127.237 357.628 127.086 357.773C126.935 357.914 126.755 357.984 126.547 357.984C126.328 357.984 126.146 357.914 126 357.773C125.854 357.628 125.781 357.409 125.781 357.117ZM133.359 368.156C132.12 368.156 131.159 367.776 130.477 367.016C129.799 366.25 129.461 365.169 129.461 363.773C129.461 362.341 129.805 361.234 130.492 360.453C131.185 359.672 132.169 359.281 133.445 359.281C133.857 359.281 134.268 359.326 134.68 359.414C135.091 359.503 135.414 359.607 135.648 359.727L135.25 360.828C134.964 360.714 134.651 360.62 134.312 360.547C133.974 360.469 133.674 360.43 133.414 360.43C131.674 360.43 130.805 361.539 130.805 363.758C130.805 364.81 131.016 365.617 131.438 366.18C131.865 366.742 132.495 367.023 133.328 367.023C134.042 367.023 134.773 366.87 135.523 366.562V367.711C134.951 368.008 134.229 368.156 133.359 368.156ZM142.828 368L142.57 366.781H142.508C142.081 367.318 141.654 367.682 141.227 367.875C140.805 368.062 140.276 368.156 139.641 368.156C138.792 368.156 138.125 367.938 137.641 367.5C137.161 367.062 136.922 366.44 136.922 365.633C136.922 363.904 138.305 362.997 141.07 362.914L142.523 362.867V362.336C142.523 361.664 142.378 361.169 142.086 360.852C141.799 360.529 141.339 360.367 140.703 360.367C139.99 360.367 139.182 360.586 138.281 361.023L137.883 360.031C138.305 359.802 138.766 359.622 139.266 359.492C139.771 359.362 140.276 359.297 140.781 359.297C141.802 359.297 142.557 359.523 143.047 359.977C143.542 360.43 143.789 361.156 143.789 362.156V368H142.828ZM139.898 367.086C140.706 367.086 141.339 366.865 141.797 366.422C142.26 365.979 142.492 365.359 142.492 364.562V363.789L141.195 363.844C140.164 363.88 139.419 364.042 138.961 364.328C138.508 364.609 138.281 365.049 138.281 365.648C138.281 366.117 138.422 366.474 138.703 366.719C138.99 366.964 139.388 367.086 139.898 367.086ZM147.766 368H146.469V355.844H147.766V368ZM160.5 366.852H160.43C159.831 367.721 158.935 368.156 157.742 368.156C156.622 368.156 155.75 367.773 155.125 367.008C154.505 366.242 154.195 365.154 154.195 363.742C154.195 362.331 154.508 361.234 155.133 360.453C155.758 359.672 156.628 359.281 157.742 359.281C158.904 359.281 159.794 359.703 160.414 360.547H160.516L160.461 359.93L160.43 359.328V355.844H161.727V368H160.672L160.5 366.852ZM157.906 367.07C158.792 367.07 159.432 366.831 159.828 366.352C160.229 365.867 160.43 365.089 160.43 364.016V363.742C160.43 362.529 160.227 361.664 159.82 361.148C159.419 360.628 158.776 360.367 157.891 360.367C157.13 360.367 156.547 360.664 156.141 361.258C155.74 361.846 155.539 362.68 155.539 363.758C155.539 364.852 155.74 365.677 156.141 366.234C156.542 366.792 157.13 367.07 157.906 367.07ZM168.391 359.281C168.771 359.281 169.112 359.312 169.414 359.375L169.234 360.578C168.88 360.5 168.568 360.461 168.297 360.461C167.604 360.461 167.01 360.742 166.516 361.305C166.026 361.867 165.781 362.568 165.781 363.406V368H164.484V359.438H165.555L165.703 361.023H165.766C166.083 360.466 166.466 360.036 166.914 359.734C167.362 359.432 167.854 359.281 168.391 359.281ZM172.312 368H171.016V359.438H172.312V368ZM170.906 357.117C170.906 356.82 170.979 356.604 171.125 356.469C171.271 356.328 171.453 356.258 171.672 356.258C171.88 356.258 172.06 356.328 172.211 356.469C172.362 356.609 172.438 356.826 172.438 357.117C172.438 357.409 172.362 357.628 172.211 357.773C172.06 357.914 171.88 357.984 171.672 357.984C171.453 357.984 171.271 357.914 171.125 357.773C170.979 357.628 170.906 357.409 170.906 357.117ZM180.922 368V362.461C180.922 361.763 180.763 361.242 180.445 360.898C180.128 360.555 179.63 360.383 178.953 360.383C178.057 360.383 177.401 360.625 176.984 361.109C176.568 361.594 176.359 362.393 176.359 363.508V368H175.062V359.438H176.117L176.328 360.609H176.391C176.656 360.188 177.029 359.862 177.508 359.633C177.987 359.398 178.521 359.281 179.109 359.281C180.141 359.281 180.917 359.531 181.438 360.031C181.958 360.526 182.219 361.32 182.219 362.414V368H180.922ZM186.172 363.617C186.396 363.299 186.737 362.883 187.195 362.367L189.961 359.438H191.5L188.031 363.086L191.742 368H190.172L187.148 363.953L186.172 364.797V368H184.891V355.844H186.172V362.289C186.172 362.576 186.151 363.018 186.109 363.617H186.172ZM194.594 368H193.297V359.438H194.594V368ZM193.188 357.117C193.188 356.82 193.26 356.604 193.406 356.469C193.552 356.328 193.734 356.258 193.953 356.258C194.161 356.258 194.341 356.328 194.492 356.469C194.643 356.609 194.719 356.826 194.719 357.117C194.719 357.409 194.643 357.628 194.492 357.773C194.341 357.914 194.161 357.984 193.953 357.984C193.734 357.984 193.552 357.914 193.406 357.773C193.26 357.628 193.188 357.409 193.188 357.117ZM203.203 368V362.461C203.203 361.763 203.044 361.242 202.727 360.898C202.409 360.555 201.911 360.383 201.234 360.383C200.339 360.383 199.682 360.625 199.266 361.109C198.849 361.594 198.641 362.393 198.641 363.508V368H197.344V359.438H198.398L198.609 360.609H198.672C198.938 360.188 199.31 359.862 199.789 359.633C200.268 359.398 200.802 359.281 201.391 359.281C202.422 359.281 203.198 359.531 203.719 360.031C204.24 360.526 204.5 361.32 204.5 362.414V368H203.203ZM214.18 359.438V360.258L212.594 360.445C212.74 360.628 212.87 360.867 212.984 361.164C213.099 361.456 213.156 361.786 213.156 362.156C213.156 362.995 212.87 363.664 212.297 364.164C211.724 364.664 210.938 364.914 209.938 364.914C209.682 364.914 209.443 364.893 209.219 364.852C208.667 365.143 208.391 365.51 208.391 365.953C208.391 366.188 208.487 366.362 208.68 366.477C208.872 366.586 209.203 366.641 209.672 366.641H211.188C212.115 366.641 212.826 366.836 213.32 367.227C213.82 367.617 214.07 368.185 214.07 368.93C214.07 369.878 213.69 370.599 212.93 371.094C212.169 371.594 211.06 371.844 209.602 371.844C208.482 371.844 207.617 371.635 207.008 371.219C206.404 370.802 206.102 370.214 206.102 369.453C206.102 368.932 206.268 368.482 206.602 368.102C206.935 367.721 207.404 367.464 208.008 367.328C207.789 367.229 207.604 367.076 207.453 366.867C207.307 366.659 207.234 366.417 207.234 366.141C207.234 365.828 207.318 365.555 207.484 365.32C207.651 365.086 207.914 364.859 208.273 364.641C207.831 364.458 207.469 364.148 207.188 363.711C206.911 363.273 206.773 362.773 206.773 362.211C206.773 361.273 207.055 360.552 207.617 360.047C208.18 359.536 208.977 359.281 210.008 359.281C210.456 359.281 210.859 359.333 211.219 359.438H214.18ZM207.352 369.438C207.352 369.901 207.547 370.253 207.938 370.492C208.328 370.732 208.888 370.852 209.617 370.852C210.706 370.852 211.51 370.688 212.031 370.359C212.557 370.036 212.82 369.596 212.82 369.039C212.82 368.576 212.677 368.253 212.391 368.07C212.104 367.893 211.565 367.805 210.773 367.805H209.219C208.63 367.805 208.172 367.945 207.844 368.227C207.516 368.508 207.352 368.911 207.352 369.438ZM208.055 362.18C208.055 362.779 208.224 363.232 208.562 363.539C208.901 363.846 209.372 364 209.977 364C211.242 364 211.875 363.385 211.875 362.156C211.875 360.87 211.234 360.227 209.953 360.227C209.344 360.227 208.875 360.391 208.547 360.719C208.219 361.047 208.055 361.534 208.055 362.18ZM221.969 368L218.719 359.438H220.109L221.953 364.516C222.37 365.703 222.615 366.474 222.688 366.828H222.75C222.807 366.552 222.987 365.982 223.289 365.117C223.596 364.247 224.281 362.354 225.344 359.438H226.734L223.484 368H221.969ZM229.406 368H228.109V359.438H229.406V368ZM228 357.117C228 356.82 228.073 356.604 228.219 356.469C228.365 356.328 228.547 356.258 228.766 356.258C228.974 356.258 229.154 356.328 229.305 356.469C229.456 356.609 229.531 356.826 229.531 357.117C229.531 357.409 229.456 357.628 229.305 357.773C229.154 357.914 228.974 357.984 228.766 357.984C228.547 357.984 228.365 357.914 228.219 357.773C228.073 357.628 228 357.409 228 357.117ZM238.016 368V362.461C238.016 361.763 237.857 361.242 237.539 360.898C237.221 360.555 236.724 360.383 236.047 360.383C235.151 360.383 234.495 360.625 234.078 361.109C233.661 361.594 233.453 362.393 233.453 363.508V368H232.156V359.438H233.211L233.422 360.609H233.484C233.75 360.188 234.122 359.862 234.602 359.633C235.081 359.398 235.615 359.281 236.203 359.281C237.234 359.281 238.01 359.531 238.531 360.031C239.052 360.526 239.312 361.32 239.312 362.414V368H238.016ZM245.602 368.156C244.336 368.156 243.336 367.771 242.602 367C241.872 366.229 241.508 365.159 241.508 363.789C241.508 362.409 241.846 361.312 242.523 360.5C243.206 359.688 244.12 359.281 245.266 359.281C246.339 359.281 247.188 359.635 247.812 360.344C248.438 361.047 248.75 361.977 248.75 363.133V363.953H242.852C242.878 364.958 243.13 365.721 243.609 366.242C244.094 366.763 244.773 367.023 245.648 367.023C246.57 367.023 247.482 366.831 248.383 366.445V367.602C247.924 367.799 247.49 367.94 247.078 368.023C246.672 368.112 246.18 368.156 245.602 368.156ZM245.25 360.367C244.562 360.367 244.013 360.591 243.602 361.039C243.195 361.487 242.956 362.107 242.883 362.898H247.359C247.359 362.081 247.177 361.456 246.812 361.023C246.448 360.586 245.927 360.367 245.25 360.367ZM257.977 359.438V360.258L256.391 360.445C256.536 360.628 256.667 360.867 256.781 361.164C256.896 361.456 256.953 361.786 256.953 362.156C256.953 362.995 256.667 363.664 256.094 364.164C255.521 364.664 254.734 364.914 253.734 364.914C253.479 364.914 253.24 364.893 253.016 364.852C252.464 365.143 252.188 365.51 252.188 365.953C252.188 366.188 252.284 366.362 252.477 366.477C252.669 366.586 253 366.641 253.469 366.641H254.984C255.911 366.641 256.622 366.836 257.117 367.227C257.617 367.617 257.867 368.185 257.867 368.93C257.867 369.878 257.487 370.599 256.727 371.094C255.966 371.594 254.857 371.844 253.398 371.844C252.279 371.844 251.414 371.635 250.805 371.219C250.201 370.802 249.898 370.214 249.898 369.453C249.898 368.932 250.065 368.482 250.398 368.102C250.732 367.721 251.201 367.464 251.805 367.328C251.586 367.229 251.401 367.076 251.25 366.867C251.104 366.659 251.031 366.417 251.031 366.141C251.031 365.828 251.115 365.555 251.281 365.32C251.448 365.086 251.711 364.859 252.07 364.641C251.628 364.458 251.266 364.148 250.984 363.711C250.708 363.273 250.57 362.773 250.57 362.211C250.57 361.273 250.852 360.552 251.414 360.047C251.977 359.536 252.773 359.281 253.805 359.281C254.253 359.281 254.656 359.333 255.016 359.438H257.977ZM251.148 369.438C251.148 369.901 251.344 370.253 251.734 370.492C252.125 370.732 252.685 370.852 253.414 370.852C254.503 370.852 255.307 370.688 255.828 370.359C256.354 370.036 256.617 369.596 256.617 369.039C256.617 368.576 256.474 368.253 256.188 368.07C255.901 367.893 255.362 367.805 254.57 367.805H253.016C252.427 367.805 251.969 367.945 251.641 368.227C251.312 368.508 251.148 368.911 251.148 369.438ZM251.852 362.18C251.852 362.779 252.021 363.232 252.359 363.539C252.698 363.846 253.169 364 253.773 364C255.039 364 255.672 363.385 255.672 362.156C255.672 360.87 255.031 360.227 253.75 360.227C253.141 360.227 252.672 360.391 252.344 360.719C252.016 361.047 251.852 361.534 251.852 362.18ZM265 368L264.742 366.781H264.68C264.253 367.318 263.826 367.682 263.398 367.875C262.977 368.062 262.448 368.156 261.812 368.156C260.964 368.156 260.297 367.938 259.812 367.5C259.333 367.062 259.094 366.44 259.094 365.633C259.094 363.904 260.477 362.997 263.242 362.914L264.695 362.867V362.336C264.695 361.664 264.549 361.169 264.258 360.852C263.971 360.529 263.51 360.367 262.875 360.367C262.161 360.367 261.354 360.586 260.453 361.023L260.055 360.031C260.477 359.802 260.938 359.622 261.438 359.492C261.943 359.362 262.448 359.297 262.953 359.297C263.974 359.297 264.729 359.523 265.219 359.977C265.714 360.43 265.961 361.156 265.961 362.156V368H265ZM262.07 367.086C262.878 367.086 263.51 366.865 263.969 366.422C264.432 365.979 264.664 365.359 264.664 364.562V363.789L263.367 363.844C262.336 363.88 261.591 364.042 261.133 364.328C260.68 364.609 260.453 365.049 260.453 365.648C260.453 366.117 260.594 366.474 260.875 366.719C261.161 366.964 261.56 367.086 262.07 367.086ZM272.547 359.281C272.927 359.281 273.268 359.312 273.57 359.375L273.391 360.578C273.036 360.5 272.724 360.461 272.453 360.461C271.76 360.461 271.167 360.742 270.672 361.305C270.182 361.867 269.938 362.568 269.938 363.406V368H268.641V359.438H269.711L269.859 361.023H269.922C270.24 360.466 270.622 360.036 271.07 359.734C271.518 359.432 272.01 359.281 272.547 359.281ZM284.594 368L284.336 366.781H284.273C283.846 367.318 283.419 367.682 282.992 367.875C282.57 368.062 282.042 368.156 281.406 368.156C280.557 368.156 279.891 367.938 279.406 367.5C278.927 367.062 278.688 366.44 278.688 365.633C278.688 363.904 280.07 362.997 282.836 362.914L284.289 362.867V362.336C284.289 361.664 284.143 361.169 283.852 360.852C283.565 360.529 283.104 360.367 282.469 360.367C281.755 360.367 280.948 360.586 280.047 361.023L279.648 360.031C280.07 359.802 280.531 359.622 281.031 359.492C281.536 359.362 282.042 359.297 282.547 359.297C283.568 359.297 284.323 359.523 284.812 359.977C285.307 360.43 285.555 361.156 285.555 362.156V368H284.594ZM281.664 367.086C282.471 367.086 283.104 366.865 283.562 366.422C284.026 365.979 284.258 365.359 284.258 364.562V363.789L282.961 363.844C281.93 363.88 281.185 364.042 280.727 364.328C280.273 364.609 280.047 365.049 280.047 365.648C280.047 366.117 280.188 366.474 280.469 366.719C280.755 366.964 281.154 367.086 281.664 367.086ZM289.453 359.438V364.992C289.453 365.69 289.612 366.211 289.93 366.555C290.247 366.898 290.745 367.07 291.422 367.07C292.318 367.07 292.971 366.826 293.383 366.336C293.799 365.846 294.008 365.047 294.008 363.938V359.438H295.305V368H294.234L294.047 366.852H293.977C293.711 367.273 293.341 367.596 292.867 367.82C292.398 368.044 291.862 368.156 291.258 368.156C290.216 368.156 289.435 367.909 288.914 367.414C288.398 366.919 288.141 366.128 288.141 365.039V359.438H289.453ZM303.586 365.664C303.586 366.461 303.289 367.076 302.695 367.508C302.102 367.94 301.268 368.156 300.195 368.156C299.06 368.156 298.174 367.977 297.539 367.617V366.414C297.951 366.622 298.391 366.786 298.859 366.906C299.333 367.026 299.789 367.086 300.227 367.086C300.904 367.086 301.424 366.979 301.789 366.766C302.154 366.547 302.336 366.216 302.336 365.773C302.336 365.44 302.19 365.156 301.898 364.922C301.612 364.682 301.049 364.401 300.211 364.078C299.414 363.781 298.846 363.523 298.508 363.305C298.174 363.081 297.924 362.828 297.758 362.547C297.596 362.266 297.516 361.93 297.516 361.539C297.516 360.841 297.799 360.292 298.367 359.891C298.935 359.484 299.714 359.281 300.703 359.281C301.625 359.281 302.526 359.469 303.406 359.844L302.945 360.898C302.086 360.544 301.307 360.367 300.609 360.367C299.995 360.367 299.531 360.464 299.219 360.656C298.906 360.849 298.75 361.115 298.75 361.453C298.75 361.682 298.807 361.878 298.922 362.039C299.042 362.201 299.232 362.354 299.492 362.5C299.753 362.646 300.253 362.857 300.992 363.133C302.008 363.503 302.693 363.875 303.047 364.25C303.406 364.625 303.586 365.096 303.586 365.664ZM308.469 367.086C308.698 367.086 308.919 367.07 309.133 367.039C309.346 367.003 309.516 366.966 309.641 366.93V367.922C309.5 367.99 309.292 368.044 309.016 368.086C308.745 368.133 308.5 368.156 308.281 368.156C306.625 368.156 305.797 367.284 305.797 365.539V360.445H304.57V359.82L305.797 359.281L306.344 357.453H307.094V359.438H309.578V360.445H307.094V365.484C307.094 366 307.216 366.396 307.461 366.672C307.706 366.948 308.042 367.086 308.469 367.086ZM312.656 368H311.359V359.438H312.656V368ZM311.25 357.117C311.25 356.82 311.323 356.604 311.469 356.469C311.615 356.328 311.797 356.258 312.016 356.258C312.224 356.258 312.404 356.328 312.555 356.469C312.706 356.609 312.781 356.826 312.781 357.117C312.781 357.409 312.706 357.628 312.555 357.773C312.404 357.914 312.224 357.984 312.016 357.984C311.797 357.984 311.615 357.914 311.469 357.773C311.323 357.628 311.25 357.409 311.25 357.117ZM321.266 368V362.461C321.266 361.763 321.107 361.242 320.789 360.898C320.471 360.555 319.974 360.383 319.297 360.383C318.401 360.383 317.745 360.625 317.328 361.109C316.911 361.594 316.703 362.393 316.703 363.508V368H315.406V359.438H316.461L316.672 360.609H316.734C317 360.188 317.372 359.862 317.852 359.633C318.331 359.398 318.865 359.281 319.453 359.281C320.484 359.281 321.26 359.531 321.781 360.031C322.302 360.526 322.562 361.32 322.562 362.414V368H321.266ZM328 367.086C328.229 367.086 328.451 367.07 328.664 367.039C328.878 367.003 329.047 366.966 329.172 366.93V367.922C329.031 367.99 328.823 368.044 328.547 368.086C328.276 368.133 328.031 368.156 327.812 368.156C326.156 368.156 325.328 367.284 325.328 365.539V360.445H324.102V359.82L325.328 359.281L325.875 357.453H326.625V359.438H329.109V360.445H326.625V365.484C326.625 366 326.747 366.396 326.992 366.672C327.237 366.948 327.573 367.086 328 367.086Z" fill="#5A5A5A"/>
<rect x="0.25" y="294.25" width="184.5" height="0.5" fill="#6D7278" stroke="#979797" stroke-width="0.5"/>
</svg>
